<?xml version="1.0" standalone="no"?>
<!DOCTYPE svg PUBLIC "-//W3C//DTD SVG 1.1//EN" "http://www.w3.org/Graphics/SVG/1.1/DTD/svg11.dtd" >
<!--
2013-9-30: Created.
-->
<svg>
<metadata>
Created by iconfont
</metadata>
<defs>

<font id="iconfont" horiz-adv-x="1024" >
  <font-face
    font-family="iconfont"
    font-weight="500"
    font-stretch="normal"
    units-per-em="1024"
    ascent="896"
    descent="-128"
  />
    <missing-glyph />
    
    <glyph glyph-name="x" unicode="x" horiz-adv-x="1001"
d="M281 543q-27 -1 -53 -1h-83q-18 0 -36.5 -6t-32.5 -18.5t-23 -32t-9 -45.5v-76h912v41q0 16 -0.5 30t-0.5 18q0 13 -5 29t-17 29.5t-31.5 22.5t-49.5 9h-133v-97h-438v97zM955 310v-52q0 -23 0.5 -52t0.5 -58t-10.5 -47.5t-26 -30t-33 -16t-31.5 -4.5q-14 -1 -29.5 -0.5
t-29.5 0.5h-32l-45 128h-439l-44 -128h-29h-34q-20 0 -45 1q-25 0 -41 9.5t-25.5 23t-13.5 29.5t-4 30v167h911zM163 247q-12 0 -21 -8.5t-9 -21.5t9 -21.5t21 -8.5q13 0 22 8.5t9 21.5t-9 21.5t-22 8.5zM316 123q-8 -26 -14 -48q-5 -19 -10.5 -37t-7.5 -25t-3 -15t1 -14.5
t9.5 -10.5t21.5 -4h37h67h81h80h64h36q23 0 34 12t2 38q-5 13 -9.5 30.5t-9.5 34.5q-5 19 -11 39h-368zM336 498v228q0 11 2.5 23t10 21.5t20.5 15.5t34 6h188q31 0 51.5 -14.5t20.5 -52.5v-227h-327z" />
    

    
    <glyph glyph-name="jinggao" unicode="&#58984;" d="M595.02592 779.264q3.072-5.12 20.992-35.328t45.056-76.288 60.928-104.448 69.632-119.296 71.168-120.832 64.512-110.08 50.176-86.016 29.184-49.152q15.36-25.6 18.944-51.2t-3.072-46.08-23.552-33.28-41.472-11.776q-12.288 0-52.224 0.512t-96.256 0.512l-128 0-144.384 0q-73.728 0-146.432-0.512t-135.168-0.512l-109.568 0-69.632 0q-38.912 0-59.904 13.312t-28.16 34.304-1.536 45.568 19.968 46.08q7.168 11.264 28.16 46.08t50.688 84.48 65.536 109.568 72.704 121.856 71.68 120.32 62.464 105.472 46.08 77.824l21.504 35.84q14.336 22.528 37.376 34.304t47.616 11.776 47.616-10.752 37.376-32.256zM569.42592 578.56q0 12.288-5.632 23.04t-14.848 19.456-20.992 13.824-24.064 5.12q-23.552 0-43.52-18.432t-19.968-41.984l0-268.288q0-23.552 19.968-42.496t43.52-18.944q24.576 0 45.056 17.92t20.48 41.472l0 269.312zM503.88992 189.44q-26.624 0-45.568-18.432t-18.944-45.056 18.944-45.568 45.568-18.944 45.056 18.944 18.432 45.568-18.432 45.056-45.056 18.432z"  horiz-adv-x="1044" />

    
    <glyph glyph-name="weixin" unicode="&#58883;" d="M668.225 471.2509c10.0166 0 19.9273-0.7355 29.7581-1.8298C671.2451 593.9197 538.1347 686.421 386.1984 686.421c-169.864 0-309.0085-115.7785-309.0085-262.7968 0-84.8625 46.2926-154.5502 123.6504-208.6016l-30.9063-92.954 108.0233 54.1683c38.6534-7.6508 69.6657-15.5165 108.2402-15.5165 9.6968 0 19.3117 0.4787 28.8467 1.2282-6.0372 20.659-9.5349 42.2973-9.5349 64.7481C405.5101 361.6942 521.4414 471.2509 668.225 471.2509zM502.0757 555.0301c23.2672 0 38.6804-15.3066 38.6804-38.5589 0-23.1593-15.4132-38.6788-38.6804-38.6788-23.1603 0-46.3995 15.5195-46.3995 38.6788C455.6762 539.7245 478.9154 555.0301 502.0757 555.0301zM285.8122 477.7935c-23.1573 0-46.5314 15.5195-46.5314 38.6788 0 23.2522 23.3731 38.5589 46.5314 38.5589 23.1593 0 38.5735-15.3066 38.5735-38.5589C324.3857 493.3129 308.9715 477.7935 285.8122 477.7935zM950.2536 230.4092c0 123.5392-123.6264 224.239-262.4741 224.239-147.0245 0-262.8208-100.6997-262.8208-224.239 0-123.7521 115.7974-224.239 262.8208-224.239 30.7724 0 61.8107 7.7597 92.717 15.5055l84.7571-46.4115-23.2392 77.2206C904.04 99.0173 950.2536 160.7214 950.2536 230.4092zM602.5658 269.074c-15.3862 0-30.9063 15.3066-30.9063 30.919 0 15.3966 15.5201 30.902 30.9063 30.902 23.3731 0 38.6804-15.5055 38.6804-30.902C641.2462 284.3806 625.9389 269.074 602.5658 269.074zM772.5367 269.074c-15.2803 0-30.6935 15.3066-30.6935 30.919 0 15.3966 15.4132 30.902 30.6935 30.902 23.1593 0 38.6774-15.5055 38.6774-30.902C811.2151 284.3806 795.6969 269.074 772.5367 269.074z"  horiz-adv-x="1000" />

    
    <glyph glyph-name="youxuan" unicode="&#58996;" d="M458.0592 698.9315c-210.331 0-380.9024-171.074-380.9583-382.1089 0-211.0329 170.5713-382.1089 380.9583-382.1089 88.5136 0 169.9168 30.2905 234.5376 81.0291l-65.5303 70.0525c-47.3279-34.8983-105.7796-55.5753-169.0063-55.5753-157.8544 0-285.703 128.27-285.703 286.5757 0 158.2887 127.8755 286.5747 285.703 286.5747 154.5575 0 280.3864-123.1935 285.4222-277.0192H610.3981763616576l171.3948-191.0675 171.4228 191.0675H838.7347259795511c-5.0628 206.5679-173.5564 372.5534-380.6755 372.5534V698.9315244264388z"  horiz-adv-x="1000" />

    
    <glyph glyph-name="zuoxuan" unicode="&#58997;" d="M572.2565 698.9035c-207.1191 0-375.6127-165.9845-380.6755-372.5534H77.0998873717442l171.4228-191.0675 171.3938 191.0675H286.8352859228671c5.0348 153.8257 130.8636 277.0192 285.4212 277.0192 157.8275 0 285.703-128.286 285.703-286.5747 0-158.3047-127.8486-286.5757-285.703-286.5757-63.2277 0-121.6775 20.677-169.0063 55.5753l-65.5303-70.0525c64.6208-50.7386 146.023-81.0291 234.5376-81.0291 210.387 0 380.9583 171.075 380.9583 382.1089-0.057 211.0349-170.6273 382.1089-380.9583 382.1089V698.9035433975764z"  horiz-adv-x="1000" />

    
    <glyph glyph-name="bofang" unicode="&#58897;" d="M836.1152 300 194.2848-74.4v748.8000000000001L836.1152 300z"  horiz-adv-x="1024" />

    
    <glyph glyph-name="jiaoshiguanli" unicode="&#58924;" d="M480.6513 725.3317c-30.4394 0-25.7556-13.612-42.1468-15.9529-16.3891-2.3357 3.3198 6.5874-45.8537-2.775-49.1735-9.3727-66.5405-72.5862-68.8814-96.0092-2.3398-23.4117-2.9276-89.2355-1.366-124.3617 4.6828-21.0678-11.7074-21.0678-11.7074-21.0678-29.4636 1.8903-16.2161-89.9246-16.2161-89.9246 4.2332-22.6273-1.5247-33.8975 42.1028-51.4222 20.7831-59.2005 75.0725-90.5062 75.0725-90.5062s0.2714-36.5353 1.0926-63.5771c-4.4411 2.2159 15.1593-69.0995-120.3651-89.1095-135.5274-19.9854-161.4776-63.8894-187.0275-88.322-25.5488-24.45-24.5555-142.9248-24.5555-142.9248l874.6455-0.469c0 0-6.4983 118.9448-32.0502 143.3948-25.5488 24.4316-53.3821 68.3356-188.9065 88.322-131.755 19.0648-110.0892 89.3788-111.0221 93.5916 0.2396 10.6568 1.6712 55.8326 1.6712 55.8326s46.0073 36.3213 66.7873 95.5279c32.7025 20.6438 45.1574 23.5233 50.5651 47.316 0 0 9.6195 92.7601-21.2582 92.2911 0 0-14.6371-4.7084-9.9492 16.3727 4.6817 21.076 3.1222 86.8936 0.7793 110.3043-2.3429 23.4168 1.1878 90.3506-47.9846 99.7171-33.5636 6.2484-37.9412 0.0614-54.3334 2.4033-16.386 2.3429-35.9014 44.799-66.3419 44.799L480.6513 725.3317z"  horiz-adv-x="1024" />

    
    <glyph glyph-name="guanbi" unicode="&#58973;" d="M286.062199 27.536883l-45.306914 45.311435c-12.511788 12.511788-12.511788 32.801907-0.00226 45.309174l181.238958 181.238958-181.236698 181.232177c-12.511788 12.514049-12.511788 32.801907 0 45.313695l45.306914 45.306914c12.514049 12.509528 32.797386 12.509528 45.311435-0.00226l181.232177-181.236698 181.236698 181.234437c12.511788 12.514049 32.801907 12.511788 45.311435 0l45.313695-45.311435c12.505007-12.505007 12.507267-32.797386-0.004521-45.306914l-181.234437-181.234437 181.236698-181.236698c12.509528-12.507267 12.507267-32.797386 0.00226-45.306914l-45.313695-45.309174c-12.509528-12.514049-32.797386-12.514049-45.309174 0l-181.234437 181.234437-181.236698-181.236698C318.859585 15.022834 298.576247 15.022834 286.062199 27.536883z"  horiz-adv-x="1024" />

    
    <glyph glyph-name="shangchuan" unicode="&#58907;" d="M646.663168-103.35872 646.663168 272.785152l214.939648 0L512.326656 702.665472 163.049472 272.785152l214.938624 0 0-376.143872L646.663168-103.35872z"  horiz-adv-x="1024" />

    
    <glyph glyph-name="shanchu1" unicode="&#58995;" d="M640.512 595.55712l0 76.8-258.048 0 0-76.8-171.008 0 0-73.728 601.088 0 0 73.728L640.512 595.55712zM239.104 471.65312l44.032-536.576 457.728 0 44.032 536.576L239.104 471.65312zM426.496 37.47712l-70.656 0 0 342.016 70.656 0L426.496 37.47712zM546.304 37.47712l-69.632 0 0 342.016 69.632 0L546.304 37.47712zM670.208 37.47712l-72.704 0 0 342.016 72.704 0L670.208 37.47712z"  horiz-adv-x="1024" />

    
    <glyph glyph-name="xinlang" unicode="&#58884;" d="M723.776512 305.851136c-33.368064 6.457344-17.17248 24.4224-17.17248 24.4224s32.651264 53.793792-6.458368 92.900352c-48.4352 48.438272-166.1696-6.150144-166.1696-6.150144-44.951552-13.96736-33.060864 6.356992-26.704896 40.952832 0 40.749056-13.94176 109.688832-133.727232 68.965376-119.681024-40.952832-222.398464-184.44288-222.398464-184.44288-71.450624-95.336448-62.01856-169.042944-62.01856-169.042944 17.861632-162.685952 190.722048-207.328256 325.16608-217.913344 141.463552-11.099136 332.343296 48.770048 390.259712 171.731968C862.422016 250.441472 757.244928 299.186944 723.776512 305.851136zM424.749056 1.41696c-140.389376-6.561792-253.92128 63.840256-253.92128 157.558784 0 93.825024 113.531904 169.042944 253.92128 175.526912 140.544 6.458368 254.278656-51.434496 254.278656-145.052672C679.028736 95.75296 565.293056 7.799552 424.749056 1.41696zM396.76416 272.687872c-141.2608-16.502784-124.910592-148.795392-124.910592-148.795392s-1.460224-41.90208 37.85216-63.248384c82.650112-44.746752 167.734272-17.636352 210.7392 37.875712C563.447808 154.0288 538.179584 289.11488 396.76416 272.687872zM361.140224 87.037696c-26.395648-3.0976-47.616 12.09856-47.616 34.162688 0 21.962752 18.86208 44.976128 45.258752 47.719424 30.291968 2.894848 49.974272-14.582784 49.974272-36.620288C408.757248 110.308096 387.383296 90.01344 361.140224 87.037696zM444.381184 157.95072c-8.91904-6.689792-19.939328-5.766144-24.654848 2.25792-4.92032 7.815168-3.075072 20.320256 5.971968 26.882048 10.48064 7.789568 21.348352 5.559296 26.063872-2.253824C456.476672 176.840448 453.093376 164.846336 444.381184 157.95072zM792.53504 363.1296c11.377664 0 21.041152 8.431616 22.679552 19.400704 0.2048 0.8192 0.308224 1.537024 0.308224 2.459648 17.246208 155.10016-127.06304 128.395264-127.06304 128.395264-12.813312 0-23.117824-10.353664-23.117824-23.294976 0-12.736512 10.304512-23.0912 23.117824-23.0912 103.640064 22.885376 80.77824-80.779264 80.77824-80.779264C769.238016 373.40544 779.695104 363.1296 792.53504 363.1296zM775.697408 633.835264c-49.871872 11.686912-101.203968 1.589248-115.581952-1.152-1.127424-0.1024-2.153472-1.153024-3.177472-1.358848-0.515072-0.1024-0.821248-0.615424-0.821248-0.615424-14.14656-3.997696-24.5248-17.119232-24.5248-32.649216 0-18.45248 14.99136-33.675264 33.649664-33.675264 0 0 18.195456 2.459648 30.49472 7.277568 12.20096 4.92032 115.582976 3.64032 166.890496-82.572288 28.035072-62.891008 12.326912-105.022464 10.35264-111.789056 0 0-6.663168-16.350208-6.663168-32.444416 0-18.553856 15.015936-30.240768 33.57184-30.240768 15.506432 0 28.548096 2.101248 32.342016 28.343296l0.2048 0C987.538432 526.660352 864.984064 612.974336 775.697408 633.835264z"  horiz-adv-x="1024" />

    
    <glyph glyph-name="tupian" unicode="&#58951;" d="M993.77664-47.79136c0-29.577216-23.97696-53.552128-53.5552-53.552128L115.490816-101.343488c-29.577216 0-53.554176 23.974912-53.554176 53.552128L61.93664 680.545024c0 29.577216 23.97696 53.554176 53.554176 53.554176l824.730624 0c29.57824 0 53.5552-23.97696 53.5552-53.554176L993.77664-47.79136zM952.81664 655.334144c0 22.352896-18.11968 40.472576-40.472576 40.472576L143.369216 695.80672c-22.351872 0-40.472576-18.11968-40.472576-40.472576l0-677.911552c0-22.351872 18.120704-40.471552 40.472576-40.471552L912.34304-63.04896c22.352896 0 40.472576 18.11968 40.472576 40.471552L952.81664 655.334144 952.81664 655.334144zM295.236608 591.639296c-49.4848 0-89.6-40.1152-89.6-89.6 0-49.4848 40.1152-89.6 89.6-89.6s89.6 40.1152 89.6 89.6C384.836608 551.524096 344.721408 591.639296 295.236608 591.639296zM343.876608 502.039296c0-26.863616-21.778432-48.64-48.64-48.64-26.863616 0-48.64 21.776384-48.64 48.64 0 26.863616 21.776384 48.64 48.64 48.64C322.0992 550.679296 343.876608 528.902912 343.876608 502.039296zM167.40864 113.15072l172.544 130.048 93.696-96.256 232.448 233.216 218.112-218.88 27.648 30.72-245.248 246.016-232.96-230.656-90.112 90.112-199.68-150.528L167.40864 113.15072zM898.302976 128.51072 573.392896 128.51072l0-40.96 324.91008 0L898.302976 128.51072zM898.302976 34.984704 387.724288 34.984704l0-40.96 510.577664 0L898.302976 34.984704 898.302976 34.984704z"  horiz-adv-x="1024" />

    
    <glyph glyph-name="erweima" unicode="&#59000;" d="M152.075264 688.488192c101.716992 0 203.435008 0 305.152 0 31.031296-3.073024 23.552-57.696256 23.552-93.184 0-63.742976 0-105.755648 0-168.96 0-36.721664 6.915072-81.729536-17.408-92.16-15.840256-6.793216-58.351616-2.048-78.848-2.048-56.271872 0-102.012928 0-161.792 0-37.400576 0-88.469504-8.927232-94.208 23.552 0 103.083008 0 206.164992 0 309.248C132.70528 676.455168 140.061696 684.799744 152.075264 688.488192zM194.059264 618.856192c0-73.387008 0-146.772992 0-220.16 73.387008 0 146.772992 0 220.16 0 0 74.411008 0 148.820992 0 223.232-73.044992 0-146.091008 0-219.136 0C193.890304 621.75616 193.9712 620.309248 194.059264 618.856192zM561.675264 688.488192c101.716992 0 203.435008 0 305.152 0 12.447744-4.61824 21.001216-13.1328 23.552-27.648 0-100.352 0-200.705024 0-301.056-2.792448-12.510208-9.324544-23.196672-21.504-26.624-19.904512-5.600256-52.977664-1.024-76.8-1.024-56.127488 0-102.14912 0-156.672 0-23.626752 0-58.642432-4.97664-77.824 1.024-27.077632 8.471552-19.456 61.329408-19.456 98.304 0 49.115136 0 106.445824 0 157.696C538.123264 631.851776 528.75264 682.523392 561.675264 688.488192zM603.659264 618.856192c0-73.387008 0-146.772992 0-220.16 73.387008 0 146.772992 0 220.16 0 0 74.411008 0 148.820992 0 223.232-73.044992 0-146.091008 0-219.136 0C603.490304 621.75616 603.5712 620.309248 603.659264 618.856192zM294.411264 554.344192c30.661632 5.786624 54.774784-14.930944 55.296-43.008 0.687104-37.025792-37.129216-57.365504-66.56-41.984C249.47712 486.949632 251.693056 546.28224 294.411264 554.344192zM704.011264 554.344192c72.223744 13.493248 70.839296-100.886528 0-89.088C658.929664 472.76416 657.47456 545.649408 704.011264 554.344192zM455.179264-83.607808c-100.692992 0-201.385984 0-302.08 0-12.540928 3.843072-21.01248 11.75552-24.576 24.576 0 102.740992 0 205.483008 0 308.224 2.982912 9.019392 9.868288 19.542016 20.48 22.528 20.0448 5.640192 52.7872 1.024 76.8 1.024 55.189504 0 105.184256 0 156.672 0 23.154688 0 56.85248 5.168128 77.824-1.024 28.371968-8.37632 20.48-60.376064 20.48-97.28 0-56.7296 0-105.121792 0-162.816C480.779264-28.206336 489.356288-80.051456 455.179264-83.607808zM194.059264 203.112192c0-73.388032 0-146.772992 0-220.16 73.387008 0 146.772992 0 220.16 0 0 74.411008 0 148.820992 0 223.232-73.044992 0-146.091008 0-219.136 0C193.890304 206.01216 193.9712 204.565248 194.059264 203.112192zM890.379264 245.096192c0-28.672 0-57.344 0-86.016-2.388992-29.014016-0.342016-62.462976-1.024-93.184-72.704 0-145.408 0-218.112 0 0 16.724992 0 33.451008 0 50.176-20.481024 2.387968-45.395968 0.342016-67.584 1.024-2.388992-64.854016-0.340992-134.142976-1.024-200.704-13.312 0-26.624 0-39.936 0-34.337792 6.882304-24.576 58.407936-24.576 99.328 0 57.078784 0 104.042496 0 158.72 0 23.865344-4.830208 59.64288 1.024 78.848 6.984704 22.913024 37.274624 19.456 67.584 19.456 51.24096 0 96.891904 0 148.48 0 0-45.396992 0-90.795008 0-136.192 22.868992 0 45.739008 0 68.608 0 0.681984 45.056-1.364992 92.841984 1.024 136.192C857.858048 274.697984 888.439808 274.216704 890.379264 245.096192zM299.531264 139.624192c32.740352 3.623936 59.804672-27.841536 47.104-62.464-17.604608-47.98976-101.778432-29.953024-86.016 30.72C264.976384 124.651264 277.561344 137.192192 299.531264 139.624192zM744.971264-83.607808c-24.576 0-49.152 0-73.728 0 0.681984 26.284032-1.363968 55.294976 1.024 79.872 24.235008 0 48.468992 0 72.704 0C744.971264-30.359808 744.971264-56.983808 744.971264-83.607808zM890.379264-3.735808c0-17.408 0-34.816 0-52.224-2.84672-14.56128-11.36128-23.45472-24.576-27.648-17.408 0-34.816 0-52.224 0 0.681984 26.284032-1.363968 55.294976 1.024 79.872C839.862272-3.735808 865.120256-3.735808 890.379264-3.735808z"  horiz-adv-x="1024" />

    
    <glyph glyph-name="sousuo" unicode="&#58880;" d="M826.398 29.617l-124.95 124.943c36.182 51.676 55.676 113.072 55.676 177.471 0 82.883-32.276 160.805-90.89 219.413-58.608 58.608-136.535 90.883-219.424 90.883s-160.814-32.275-219.424-90.883c-58.61-58.608-90.89-136.531-90.89-219.413s32.276-160.805 90.89-219.413 136.535-90.883 219.424-90.883c64.402 0 125.803 19.494 177.479 55.674l124.95-124.943c10.653-10.653 24.614-15.979 38.576-15.979s27.924 5.326 38.576 15.979c21.307 21.303 21.307 55.846 0.001 77.153zM245.617 332.032c0 110.937 90.256 201.187 201.196 201.187s201.196-90.253 201.196-201.187c0-110.935-90.256-201.187-201.196-201.187-110.939 0-201.196 90.253-201.196 201.187z"  horiz-adv-x="1024" />

    
    <glyph glyph-name="baocun" unicode="&#58983;" d="M719.93 702.78 145.554 702.78c-13.499 0-24.442-10.944-24.442-24.442l0-733.245c0-13.498 10.943-24.112 24.442-24.112l733.245 0c13.498 0 24.112 10.614 24.112 24.112L902.911 519.468 719.93 702.78zM634.252 495.595c0-6.749-5.472-12.22-12.221-12.22L230.946 483.375c-6.75 0-12.221 5.472-12.221 12.22l0 97.351c0 6.75 5.472 12.221 12.221 12.221l391.085 0c6.749 0 12.221-5.472 12.221-12.221L634.252 495.595 634.252 495.595zM805.298 30.814c0-6.751-5.471-12.221-12.221-12.221L230.946 18.593c-6.75 0-12.221 5.47-12.221 12.221L218.725 311.749c0 6.749 5.472 12.22 12.221 12.22l562.131 0c6.75 0 12.221-5.472 12.221-12.22L805.298 30.814zM756.043 275.032c0 6.75-5.47 12.22-12.22 12.22l-73.171 0c-6.75 0-12.221-5.47-12.221-12.22l0-73.172c0-6.749 5.471-12.221 12.221-12.221l73.171 0c6.75 0 12.22 5.472 12.22 12.221L756.043 275.032 756.043 275.032z"  horiz-adv-x="1024" />

    
    <glyph glyph-name="ordinaryprint" unicode="&#59067;" d="M945.28 583.072 796.8 583.072 796.8 744.864 227.328 744.864l0-161.792L78.72 583.072c-25.792 0-46.72-20.928-46.72-46.72l0-396.864 195.328 0 0-67.648 216.768-216.768 352.704 0 0 282.112 195.2 0L992 536.352C992 562.144 971.072 583.072 945.28 583.072zM282.368 689.824l459.392 0 0-106.752L282.368 583.072 282.368 689.824zM851.2 213.6l-54.4 0 0 108.8-55.04 0 0-412.288L516.096-89.888c-81.728 0-42.368 193.728-42.368 193.728S284.8 57.888 282.368 144.48L282.368 322.4l-55.04 0 0-106.56L172.8 215.84 172.8 401.248l678.4 0L851.2 213.6zM890.432 468.448c-20.608 0-37.376 16.768-37.376 37.376 0 20.608 16.768 37.376 37.376 37.376 20.672 0 37.376-16.768 37.376-37.376C927.808 485.216 911.104 468.448 890.432 468.448zM676.608 314.784 360.384 314.784l0-55.04 316.224 0L676.608 314.784zM360.384 151.904l316.224 0L676.608 206.88 360.384 206.88 360.384 151.904z"  horiz-adv-x="1024" />

    
    <glyph glyph-name="ordinaryset" unicode="&#59069;" d="M955.136 373.856 910.72 373.856c-20.288 0-41.792 15.872-47.872 35.264l-25.408 61.824c-9.536 17.92-5.696 44.288 8.64 58.688l31.488 31.36c14.4 14.464 14.4 37.952 0 52.288l-52.288 52.16c-14.4 14.4-37.888 14.4-52.224 0L741.568 634.08c-14.336-14.336-40.768-18.304-58.688-8.64L621.12 650.848C601.792 656.864 585.856 678.432 585.856 698.72L585.856 743.072C585.856 763.36 569.216 780 548.928 780L475.136 780c-20.352 0-36.992-16.64-36.992-36.928L438.144 698.72c0-20.352-15.808-41.92-35.264-47.936L341.056 625.44c-17.92-9.6-44.224-5.696-58.624 8.64L250.944 665.504c-14.336 14.4-37.824 14.4-52.16 0L146.56 613.344c-14.4-14.4-14.4-37.888 0-52.224l31.36-31.424c14.4-14.4 18.304-40.768 8.704-58.688L161.152 409.12C155.136 389.728 133.568 373.856 113.28 373.856l-44.288 0C48.64 373.856 32 357.28 32 336.928l0-73.792c0-20.352 16.64-36.928 36.928-36.928L113.28 226.208c20.288-0.064 41.792-15.936 47.808-35.328l25.536-61.824c9.536-17.92 5.696-44.416-8.704-58.688l-31.424-31.36c-14.336-14.464-14.336-37.952 0-52.288l52.288-52.224c14.336-14.4 37.824-14.4 52.16 0l31.488 31.424c14.272 14.336 40.64 18.24 58.496 8.576l61.952-25.408c19.456-6.08 35.264-27.584 35.264-47.872l0-44.16c0-20.288 16.64-36.928 36.992-36.928l73.792 0c20.224 0 36.928 16.64 36.928 36.928l0 44.16c0 20.288 15.936 41.792 35.264 47.872l61.888 25.408c17.856 9.664 44.352 5.76 58.688-8.576l31.296-31.424c14.4-14.4 37.888-14.4 52.224 0l52.288 52.224c14.4 14.4 14.4 37.888 0 52.288l-31.488 31.36c-14.336 14.272-18.176 40.768-8.64 58.688l25.408 61.824c6.08 19.392 27.648 35.264 47.872 35.264l44.352 0c20.224 0 36.864 16.576 36.864 36.928L991.872 336.928C992 357.28 975.36 373.856 955.136 373.856M696.704 300.064c0-102.016-82.624-184.576-184.576-184.576-102.016 0-184.64 82.56-184.64 184.576 0 101.952 82.688 184.576 184.64 184.576C614.08 484.64 696.704 402.016 696.704 300.064"  horiz-adv-x="1024" />

    
    <glyph glyph-name="qq" unicode="&#58945;" d="M855.8592 184.429312c-5.310464 73.131008-54.381568 134.397952-82.747392 166.086656 3.93728 9.219072 13.518848 62.58176-23.48032 98.992128 0.059392 0.873472 0.059392 1.739776 0.059392 2.586624 0 143.633408-102.234112 247.017472-230.51264 247.487488-128.299008-0.47104-230.529024-103.855104-230.529024-247.487488 0-0.846848-0.012288-1.713152 0.049152-2.586624-36.999168-36.410368-27.400192-89.773056-23.48032-98.992128-28.347392-31.688704-77.42464-92.955648-82.745344-166.086656-0.959488-19.224576 2.013184-47.227904 11.404288-59.6736 11.4432-15.176704 42.852352 3.047424 65.313792 51.535872 6.249472-22.463488 20.673536-56.756224 53.311488-100.283392-54.621184-12.465152-70.201344-66.338816-51.825664-95.787008 12.959744-20.75136 42.631168-37.818368 93.765632-37.818368 90.978304 0 131.155968 24.451072 149.087232 41.47712 3.654656 3.714048 8.926208 5.505024 15.648768 5.51936 6.700032-0.014336 11.983872-1.805312 15.62624-5.51936 17.933312-17.026048 58.119168-41.47712 149.076992-41.47712 51.152896 0 80.80384 17.067008 93.763584 37.818368 18.3808 29.448192 2.803712 83.32288-51.803136 95.787008 32.638976 43.528192 47.066112 77.819904 53.311488 100.283392 22.467584-48.488448 53.870592-66.711552 65.324032-51.535872C853.858304 137.201408 856.835072 165.204736 855.8592 184.429312z"  horiz-adv-x="1024" />

    
    <glyph glyph-name="ok-sign" unicode="&#58890;" d="M949.768 525.45l-91.178 91.545c-11.762 11.809-30.869 11.847-42.678 0.086l-99.82-99.42-306.765-309.955c-6.311-5.663-11.249-0.857-12.109 0.006l-190.893 196.231c-10.759 10.803-28.239 10.838-39.042 0.079l-95.188-94.806c-10.803-10.759-10.838-28.239-0.079-39.042l306.048-307.28c1.089-1.093 2.249-2.069 3.463-2.941 0.089-0.064 0.173-0.135 0.251-0.213v0c11.762-11.809 30.869-11.847 42.678-0.086l525.225 523.119c11.809 11.761 11.847 30.869 0.086 42.678z"  horiz-adv-x="1024" />

    
    <glyph glyph-name="gouwuche" unicode="&#58936;" d="M919.843 589.582h-678.669l-11.765 97.064c-1.92 15.839-16.544 28.797-32.497 28.797h-6.45c-2.725 0-5.315-0.386-7.735-1.092h-82.953c-19.144 0-34.809-14.358-34.809-31.908s15.664-31.908 34.809-31.908h69.548l66.407-547.876c1.92-15.839 16.544-28.797 32.497-28.797h6.45c2.695 0 5.26 0.378 7.657 1.069h548.821c19.145 0 34.809 14.358 34.809 31.909 0 17.549-15.664 31.908-34.809 31.908h-535.334l-8.134 67.111h545.177c15.954 0 31.893 12.73 35.42 28.29l74.156 327.145c3.526 15.557-6.641 28.287-22.595 28.287zM294.588-65.719c0-42.808 34.703-77.511 77.511-77.511s77.511 34.703 77.511 77.511c0 42.808-34.703 77.511-77.511 77.511-42.808 0-77.511-34.703-77.511-77.511zM678.827-65.719c0-42.808 34.703-77.511 77.511-77.511s77.511 34.703 77.511 77.511c0 42.808-34.703 77.511-77.511 77.511-42.808 0-77.511-34.703-77.511-77.511z"  horiz-adv-x="1024" />

    
    <glyph glyph-name="yidong" unicode="&#58948;" d="M1018.56779 284.846912c0.044002 0.053212 0.083911 0.106424 0.125866 0.159635 0.449231 0.558724 0.875948 1.135868 1.275037 1.733477 0.058328 0.085958 0.110517 0.173962 0.166799 0.259919 0.370436 0.572027 0.719383 1.15838 1.041724 1.76213 0.050142 0.095167 0.097214 0.190335 0.145309 0.284479 0.312108 0.602726 0.599656 1.218755 0.859575 1.851157 0.014326 0.031722 0.031722 0.064468 0.045025 0.096191 0.021489 0.051165 0.033769 0.103354 0.054235 0.153496 0.255826 0.641612 0.486069 1.295503 0.686637 1.962697 0.020466 0.067538 0.037862 0.135076 0.058328 0.201591 0.195451 0.674357 0.364296 1.358948 0.501419 2.056841 0.004093 0.020466 0.010233 0.039909 0.014326 0.060375 0.008186 0.038886 0.010233 0.077771 0.017396 0.115633 0.130983 0.694824 0.23536 1.397833 0.304945 2.1121 0.00614 0.056282 0.008186 0.11154 0.013303 0.167822 0.063445 0.700963 0.100284 1.408067 0.10233 2.124379 0 0.033769 0 0.066515 0 0.100284-0.002047 0.713243-0.038886 1.417276-0.101307 2.114146-0.00614 0.061398-0.008186 0.121773-0.014326 0.183171-0.068561 0.708126-0.172938 1.40602-0.301875 2.09368-0.013303 0.065491-0.022513 0.130983-0.035816 0.196474-0.135076 0.689707-0.302898 1.367134-0.495279 2.033305-0.021489 0.075725-0.041955 0.151449-0.064468 0.228197-0.197498 0.657985-0.425695 1.302666-0.677427 1.937115-0.036839 0.092097-0.070608 0.185218-0.10847 0.277315-0.256849 0.622169-0.540305 1.228988-0.846273 1.823528-0.053212 0.103354-0.104377 0.206707-0.158612 0.310061-0.318248 0.595563-0.661054 1.172707-1.026374 1.736547-0.061398 0.094144-0.118703 0.190335-0.182148 0.283455-0.394995 0.592493-0.81762 1.163497-1.261734 1.717104-0.046049 0.057305-0.090051 0.116657-0.137123 0.172938-0.501419 0.612959-1.032514 1.202382-1.593285 1.76213-0.001023 0.001023-0.002047 0.002047-0.00307 0.00307 0 0-0.001023 0.001023-0.001023 0.001023-0.013303 0.013303-0.026606 0.025583-0.040932 0.038886L851.947268 481.944502c-9.34686 9.34686-24.498925 9.347883-33.847831-0.001023-9.34686-9.34686-9.345837-24.499948 0-33.845785l124.163633-124.161586L575.723708 323.936107c-13.21802 0-23.936107-10.715018-23.936107-23.936107 0-13.216996 10.718088-23.934061 23.936107-23.934061l366.539361 0L818.10046 151.901283c-9.34686-9.345837-9.347883-24.497901 0-33.846808 9.347883-9.345837 24.499948-9.345837 33.846808 0l165.022121 165.023144c0.001023 0.001023 0.002047 0.002047 0.00307 0.00307C1017.532206 283.642483 1018.065348 284.23293 1018.56779 284.846912zM363.902818 606.120414 488.065428 730.283024l0-366.558804c0-13.21802 10.715018-23.936107 23.934061-23.936107 13.21802 0 23.935084 10.718088 23.935084 23.936107L535.934572 730.283024 660.097182 606.120414c9.34686-9.34686 24.497901-9.347883 33.845785 0 9.34686 9.34686 9.34686 24.497901 0 33.846808L528.924939 804.989343c-0.010233 0.010233-0.021489 0.018419-0.031722 0.028653-0.549514 0.548491-1.127681 1.069353-1.727337 1.562585-0.064468 0.052189-0.128936 0.100284-0.192381 0.151449-0.548491 0.441044-1.115402 0.859575-1.701755 1.251501-0.095167 0.063445-0.192381 0.122796-0.288572 0.185218-0.563841 0.364296-1.140984 0.70915-1.735524 1.025351-0.100284 0.054235-0.201591 0.103354-0.302898 0.154519-0.59761 0.309038-1.209546 0.59454-1.835808 0.852412-0.085958 0.034792-0.171915 0.067538-0.257873 0.101307-0.640588 0.255826-1.293456 0.486069-1.960651 0.685614-0.064468 0.019443-0.130983 0.036839-0.195451 0.055258-0.677427 0.197498-1.366111 0.367366-2.068098 0.505512-0.052189 0.010233-0.104377 0.018419-0.155542 0.027629-0.701987 0.132006-1.413183 0.23843-2.135636 0.308015-0.045025 0.004093-0.089027 0.00614-0.134053 0.010233-0.722453 0.065491-1.453092 0.104377-2.192941 0.1054-0.004093 0-0.007163 0-0.011256 0-0.743942 0-1.478675-0.038886-2.20522-0.1054-0.039909-0.00307-0.079818-0.005117-0.119727-0.00921-0.729616-0.070608-1.450022-0.177032-2.158148-0.312108-0.042979-0.008186-0.084934-0.014326-0.127913-0.022513-0.71222-0.139169-1.413183-0.312108-2.101867-0.513699-0.052189-0.01535-0.104377-0.028653-0.155542-0.044002-0.682544-0.204661-1.351785-0.440021-2.006699-0.701987-0.041955-0.016373-0.084934-0.027629-0.12689-0.044002-0.027629-0.011256-0.053212-0.025583-0.080841-0.036839-0.644682-0.265036-1.27299-0.558724-1.887996-0.875948-0.083911-0.042979-0.167822-0.084934-0.251733-0.128936-0.612959-0.325411-1.207499-0.679474-1.786689-1.05605-0.079818-0.052189-0.160659-0.101307-0.240476-0.154519-0.603749-0.402159-1.188056-0.83297-1.750873-1.287317-0.048095-0.038886-0.098237-0.074701-0.146332-0.11461-0.627285-0.512675-1.227965-1.057073-1.799992-1.630124L330.054987 639.968246c-9.344814-9.347883-9.345837-24.499948 0-33.847831C339.401847 596.774577 354.554935 596.774577 363.902818 606.120414zM660.097182-6.118368 535.931503-130.283024 535.931503 235.004837l0.004093 0c0 13.21802-10.719111 23.934061-23.936107 23.934061-13.219043 0-23.935084-10.716041-23.935084-23.934061l0-365.28786L363.901795-6.121437c-9.34686 9.34686-24.498925 9.347883-33.846808 0-9.345837-9.348907-9.345837-24.499948 0-33.846808L495.076084-204.990367c0.112563-0.11154 0.23536-0.205684 0.34997-0.316201 0.338714-0.325411 0.686637-0.639565 1.044794-0.94451 0.336667-0.287548 0.680497-0.561794 1.028421-0.827853 0.249686-0.191358 0.502442-0.377599 0.760315-0.558724 0.441044-0.311084 0.889251-0.601703 1.345645-0.876972 0.186241-0.113587 0.373506-0.225127 0.562817-0.333597 0.490163-0.278339 0.987489-0.538258 1.491977-0.781804 0.181125-0.086981 0.364296-0.171915 0.548491-0.253779 0.513699-0.231267 1.032514-0.443091 1.558492-0.635472 0.195451-0.070608 0.392949-0.140193 0.590446-0.205684 0.530072-0.179078 1.064236-0.338714 1.602494-0.478906 0.196474-0.051165 0.393972-0.099261 0.593516-0.145309 0.565887-0.132006 1.132798-0.243546 1.705848-0.333597 0.162705-0.025583 0.325411-0.048095 0.489139-0.070608 0.631379-0.085958 1.263781-0.147356 1.898229-0.183171 0.112563-0.00614 0.225127-0.01228 0.33769-0.016373 0.680497-0.028653 1.359971-0.028653 2.040468 0 0.106424 0.004093 0.210801 0.010233 0.317224 0.01535 0.649798 0.036839 1.29755 0.099261 1.942231 0.189311 0.143263 0.019443 0.285502 0.038886 0.427741 0.061398 0.601703 0.094144 1.199312 0.211824 1.792829 0.352017 0.164752 0.038886 0.327457 0.077771 0.490163 0.119727 0.57919 0.149402 1.15224 0.321318 1.721198 0.515745 0.153496 0.052189 0.306991 0.1054 0.457417 0.159635 0.57305 0.206707 1.134844 0.437974 1.693568 0.69073 0.13303 0.060375 0.265036 0.12075 0.397042 0.184195 0.553608 0.262989 1.098005 0.547468 1.63524 0.856506 0.132006 0.075725 0.262989 0.153496 0.393972 0.23229 0.509605 0.306991 1.011025 0.630355 1.50221 0.978279 0.183171 0.12996 0.36225 0.264012 0.540305 0.398065 0.419555 0.315178 0.831946 0.639565 1.234105 0.985442 0.331551 0.283455 0.656961 0.57612 0.971116 0.876972 0.125866 0.119727 0.260943 0.224104 0.384762 0.347923 0.020466 0.020466 0.035816 0.041955 0.056282 0.062422l164.962769 164.960723c9.34686 9.34686 9.34686 24.501995 0 33.849878C684.59713 3.228493 669.443019 3.227469 660.097182-6.118368zM81.732838 276.070032l365.271487 0c13.21802 0 23.934061 10.719111 23.934061 23.936107-0.001023 13.21495-10.716041 23.930991-23.934061 23.930991L81.737954 323.937131 205.900564 448.09667c9.345837 9.345837 9.348907 24.498925 0 33.846808-9.347883 9.347883-24.498925 9.347883-33.847831 0.001023L7.041868 316.932614c-0.00307-0.00307-0.007163-0.00614-0.010233-0.00921-0.024559-0.024559-0.045025-0.052189-0.069585-0.077771-0.519839-0.524955-1.015118-1.072423-1.484814-1.642403-0.049119-0.059352-0.098237-0.11768-0.146332-0.177032-0.453324-0.560771-0.881065-1.143031-1.2822-1.744734-0.039909-0.059352-0.081864-0.11768-0.121773-0.178055-0.404205-0.617052-0.780781-1.254571-1.127681-1.908462-0.016373-0.030699-0.034792-0.061398-0.051165-0.092097-0.35611-0.678451-0.680497-1.377367-0.971116-2.091634-0.001023-0.002047-0.002047-0.00307-0.002047-0.005117-0.002047-0.005117-0.00307-0.010233-0.005117-0.01535-0.286525-0.707103-0.540305-1.431603-0.759292-2.171451-0.002047-0.007163-0.00307-0.014326-0.005117-0.021489-0.213871-0.725523-0.396019-1.464348-0.541328-2.216477-0.002047-0.013303-0.004093-0.026606-0.00614-0.039909-0.140193-0.730639-0.249686-1.471511-0.321318-2.224663-0.00307-0.028653-0.004093-0.058328-0.00614-0.086981-0.066515-0.719383-0.103354-1.446952-0.104377-2.182708 0-0.032746 0-0.064468 0-0.097214 0.002047-0.730639 0.037862-1.453092 0.104377-2.167358 0.00307-0.034792 0.004093-0.069585 0.007163-0.1054 0.071631-0.741896 0.179078-1.471511 0.316201-2.192941 0.005117-0.025583 0.008186-0.053212 0.014326-0.078794 0.142239-0.733709 0.320294-1.455139 0.528025-2.162242 0.007163-0.026606 0.014326-0.054235 0.021489-0.079818 0.212847-0.713243 0.457417-1.41216 0.732686-2.094704 0.013303-0.033769 0.024559-0.068561 0.038886-0.10233 0.283455-0.695847 0.598633-1.374297 0.94451-2.034329 0.034792-0.065491 0.072655-0.12996 0.107447-0.195451 0.330527-0.619099 0.685614-1.222848 1.06833-1.809202 0.058328-0.089027 0.121773-0.176008 0.181125-0.265036 0.381692-0.567934 0.785898-1.119495 1.213639-1.65059 0.070608-0.088004 0.144286-0.174985 0.21694-0.261966 0.445137-0.536211 0.911764-1.054003 1.400903-1.550306 0.039909-0.039909 0.072655-0.083911 0.112563-0.12382l165.022121-165.023144c9.348907-9.345837 24.499948-9.345837 33.846808 0 9.34993 9.348907 9.34686 24.500971 0 33.846808L81.732838 276.070032z"  horiz-adv-x="1024" />

    
    <glyph glyph-name="query" unicode="&#59176;" d="M511.998 800c-282.768 0-511.994-229.23-511.994-511.998 0-282.769 229.226-512.002 511.994-512.002 282.771 0 511.998 229.232 511.998 512 0 282.768-229.224 512-511.998 512v0zM561.686-7.442c0-14.138-11.458-25.602-25.6-25.602h-76.799c-14.136 0-25.599 11.462-25.599 25.602v76.797c0 14.143 11.463 25.604 25.599 25.604h76.799c14.14 0 25.6-11.46 25.6-25.604v-76.797zM688.587 344.94c-10.29-14.673-33.646-33.368-62.886-56.162l-32.404-22.362c-15.737-12.208-29.696-26.42-34.857-42.692-1.765-5.544-3.086-14.655-3.977-24.495-0.448-4.952-4.878-15.055-15.231-15.055-25.37 0-73.72 0-83.339 0-13.547 0-15.967 10.61-15.74 15.8 1.5 34.017 4.615 64.216 18.476 80.474 28.061 32.899 91.907 73.851 91.907 73.851 9.72 7.336 17.59 15.311 23.542 24 10.82 14.92 19.796 31.304 19.796 49.214 0 20.584-6.018 39.348-18.094 56.332-12.034 16.916-34.078 25.392-66.020 25.392-31.443 0-53.733-10.436-66.873-31.3-9.706-15.416-15.817-29.588-18.348-45.010-0.9-5.458-4.4-16.954-16.066-16.954-24.649 0-70.093 0-81.28 0-17.309 0-21.118 11.216-20.618 16.622 6.266 68.137 32.892 114.691 79.971 144.585 32.015 20.582 71.399 30.91 118.119 30.91 61.39 0 112.349-14.634 152.978-43.944 40.556-29.27 60.892-72.641 60.892-130.149 0.002-35.219-12.358-64.916-29.948-89.058v0z"  horiz-adv-x="1024" />

    
    <glyph glyph-name="iconfontzan" unicode="&#58954;" d="M1023.968162 437.536c0-35.456-12.191-62.496-36.032-78.208 14.465-8.192 35.776-48.704 35.776-84.48-1.439-59.104-58.624-102.912-144.96-102.912L649.824162 171.936c39.2-106.688 31.808-250.56-17.344-327.359C602.880162-201.632 567.328162-212 542.656162-212c-83.072 0-85.792 80.032-85.792 107.264 0 91.072-13.152 132.576-29.536 170.848-12.992 24.769-92.512 106.24-173.76 106.24L101.312162 172.352C42.528162 172.352-0.095838 221.568 0.000162 291.616l39.488 416.672C44.256162 772.479 75.776162 811.36 139.008162 811.36c0 0 31.488 0.256 55.072 0.256 12.032 0 23.264-0.096 29.92-0.256 19.488-0.641 35.552-13.12 49.76-23.616 10.048-7.393 18.016-13.824 25.248-13.824 3.232 0 21.696 10.592 44.353 20.224C366.464162 803.904 403.104162 812 438.144162 812l318.433 0c106.752 0 158.016-40 158.016-106.688 0-19.712-4.544-31.392-15.487-46.655 42.848-10.272 80.863-37.216 80.863-83.681 0-17.248-8.128-44.96-19.231-52.319C981.696162 517.312 1024.032162 479.936 1023.968162 437.536zM222.432162 769.376c-19.072 0.608-87.488 0-87.936 0-24.544 0-46.304-23.136-51.84-54.208L43.168162 282.016c0-32.416 26.08-67.936 60.896-67.936l0 0.224 149.504 0.448c2.56 0 5.088-0.32 7.616-0.416L261.184162 744.224c-6.912 4.832-13.376 9.504-17.984 12.896C236.864162 761.792 226.272162 768.928 222.432162 769.376zM920.640162 494.304c-0.063 0-5.76 0-5.792 0l0.544 38.656c4.641 1.76 21.761 6.912 21.792 40.512 0 36-47.296 50.464-87.136 50.464l0.097 0-0.673 36.832c16.225 3.616 22.048 17.792 22.017 40.448 0 39.616-32.192 68.16-115.809 68.16L425.920162 769.376c-15.776 0-47.808-9.184-66.271-18.112-17.408-8.416-45.313-24.159-54.944-29.376l0-514.56c82.912-22.977 151.36-94.496 168.64-127.52 18.784-43.681 28.192-89.345 28.192-189.505 0-49.76 18.271-56.448 37.728-56.448 17.217 0 44.576 18.977 58.4 40.608 40.928 63.904 50.496 201.568-0.416 304.672l-8.768 35.681 292.256-0.064c49.76 2.72 99.775 23.072 99.775 59.776l-0.352 11.487c0.16 0.48-1.216 31.809-17.889 45.633-13.983 11.615-25.312 12-25.312 12l-0.32 38.048c0 0 16.864 2.271 25.664 8.319 13.248 9.088 19.265 26.305 18.561 45.12C980.000162 458.944 943.200162 494.304 920.640162 494.304z"  horiz-adv-x="1025" />

    
    <glyph glyph-name="play" unicode="&#58882;" d="M511.772 735.937c-247.3 0-447.777-200.477-447.777-447.777s200.477-447.777 447.777-447.777 447.778 200.477 447.778 447.777-200.477 447.777-447.778 447.777zM511.772-70.053c-197.835 0-358.212 160.377-358.212 358.212s160.377 358.212 358.212 358.212 358.212-160.378 358.212-358.212-160.377-358.212-358.212-358.212zM684.249 316.322l-232.167 134.042c-21.68 12.516-48.779-3.129-48.779-28.162v-268.084c0-25.033 27.099-40.678 48.779-28.162l232.167 134.042c21.68 12.517 21.68 43.809 0 56.325z"  horiz-adv-x="1024" />

    
    <glyph glyph-name="quxiao" unicode="&#59089;" d="M484.581022-44.901261l-2.116197 250.485915c294.777677 65.408709 400.986627-65.035202 400.986627-65.035202 106.214067-151.811568 95.747691-281.942347 95.747691-281.942347 81.979106 160.342872 23.611767 297.705356 23.611767 297.705356-108.518552 293.966195-520.347109 340.812129-520.347109 340.812129l-2.182712 254.537184C292.71418 603.895335 2.733763 326.686802 2.733763 326.686802S450.441481-44.901261 484.581022-44.901261z"  horiz-adv-x="1024" />

    
    <glyph glyph-name="xunzhanghover" unicode="&#58908;" d="M513.365333 471.52c53.333333 0 103.6288-12.629333 148.650667-34.525867 27.136 65.774933 73.216 181.623467 73.216 209.800533L735.232 778.72l-204.8 0 0-267.656533-34.133333 0L496.298667 778.72l-204.8 0 0-131.925333c0-28.194133 45.6704-144.520533 72.413867-210.193067C409.122133 458.737067 459.7248 471.52 513.365333 471.52zM819.1488 158.193067c-0.238933 2.645333-0.546133 5.290667-0.8704 7.918933-0.836267 7.1168-1.8944 14.165333-3.208533 21.128533-0.426667 2.2528-0.768 4.539733-1.2288 6.7584-1.792 8.533333-3.976533 16.913067-6.468267 25.173333-0.853333 2.7648-1.826133 5.444267-2.730667 8.174933-1.877333 5.632-3.908267 11.195733-6.109867 16.708267-1.3312 3.310933-2.6624 6.638933-4.113067 9.898667-2.321067 5.290667-4.864 10.427733-7.4752 15.547733-2.781867 5.4272-5.7344 10.769067-8.840533 16.008533-2.167467 3.703467-4.352 7.406933-6.673067 10.990933-2.730667 4.1984-5.563733 8.311467-8.482133 12.373333-1.723733 2.4064-3.498667 4.727467-5.290667 7.0656-11.3664 14.865067-23.9616 28.706133-37.802667 41.250133-0.733867 0.648533-1.450667 1.314133-2.167467 1.979733-20.6336 18.363733-43.741867 34.030933-68.7616 46.3872l0 0.017067c-40.925867 20.189867-86.8352 31.829333-135.543467 31.829333-49.1008 0-95.3344-11.810133-136.4992-32.3072-24.763733-12.322133-47.598933-27.921067-68.027733-46.148267-0.938667-0.836267-1.8432-1.672533-2.7648-2.5088-13.550933-12.3904-25.924267-25.992533-37.0688-40.618667-1.826133-2.423467-3.6864-4.8128-5.444267-7.287467-2.8672-3.9936-5.649067-8.055467-8.328533-12.1856-2.338133-3.618133-4.539733-7.338667-6.724267-11.0592-2.952533-5.0176-5.7856-10.103467-8.448-15.291733-2.730667-5.3248-5.358933-10.666667-7.799467-16.162133-1.416533-3.2256-2.730667-6.536533-4.061867-9.813333-2.184533-5.4784-4.215467-11.042133-6.075733-16.674133-0.9216-2.747733-1.911467-5.461333-2.747733-8.226133-2.491733-8.226133-4.6592-16.622933-6.468267-25.1392-0.4608-2.2016-0.785067-4.437333-1.194667-6.656-1.314133-6.997333-2.423467-14.062933-3.242667-21.230933-0.3072-2.6112-0.6144-5.239467-0.853333-7.8848-0.836267-9.233067-1.416533-18.551467-1.416533-28.0064 0-169.659733 137.540267-307.2 307.2-307.2s307.2 137.540267 307.2 307.2C820.565333 139.6416 819.985067 148.96 819.1488 158.193067zM513.365333-74.613333c-113.1008 0-204.8 91.665067-204.8 204.8 0 113.1008 91.6992 204.782933 204.8 204.782933 113.117867 0 204.8-91.682133 204.8-204.782933C718.165333 17.051733 626.4832-74.613333 513.365333-74.613333zM513.365333 300.836267c-94.1056 0-170.666667-76.544-170.666667-170.6496 0-94.122667 76.561067-170.666667 170.666667-170.666667 94.122667 0 170.666667 76.544 170.666667 170.666667C684.032 224.2752 607.488 300.836267 513.365333 300.836267z"  horiz-adv-x="1024" />

    
    <glyph glyph-name="aixin" unicode="&#58888;" d="M941.248 427.104c0 143.104-112.32 259.584-250.176 259.584-68.096 0-132.544-29.376-179.072-79.488-46.592 50.112-111.104 79.488-179.072 79.488-137.92 0-250.176-116.416-250.176-259.584 0-4.8 0.448-9.088 0.832-12.608-0.064-1.152-0.128-2.304-0.128-3.52 0-25.344 6.144-53.184 18.24-82.752 0.384-1.088 0.768-2.112 1.216-3.072 76.224-182.848 369.664-393.216 382.144-402.88 7.744-5.952 16.96-8.896 26.24-8.896 9.408 0 18.688 3.072 26.496 9.152 10.688 8.32 260.992 188.48 360.32 358.912 3.776 5.76 6.592 11.328 9.088 16.128 0.768 1.536 1.472 3.072 2.304 4.544l0.32 0.704c0.32 0.576 0.704 1.216 1.088 1.728 5.952 11.584 10.688 22.336 14.464 32.832 10.304 27.008 15.36 51.072 15.36 73.536 0 1.728-0.064 3.264-0.192 4.544C940.864 418.4 941.248 422.368 941.248 427.104z"  horiz-adv-x="1024" />

    
    <glyph glyph-name="shijian" unicode="&#58903;" d="M511.998465 627.538825c-181.39535 0-328.446497-147.052171-328.446497-328.446497 0-181.393303 147.051147-328.446497 328.446497-328.446497s328.447521 147.053194 328.447521 328.446497C840.445986 480.485631 693.393815 627.538825 511.998465 627.538825zM511.998465 14.437196c-157.209508 0-284.653085 127.444601-284.653085 284.654109 0 157.209508 127.444601 284.654109 284.653085 284.654109s284.653085-127.444601 284.653085-284.654109C796.65155 141.881796 669.207973 14.437196 511.998465 14.437196zM654.325008 277.194598 511.998465 277.194598 511.998465 419.522164c0 6.05081-4.89652 10.948353-10.948353 10.948353l-21.895683 0c-6.051833 0-10.948353-4.897543-10.948353-10.948353L468.206076 266.247268l0-21.895683c0-6.05081 4.89652-10.94733 10.948353-10.94733l175.171602 0c6.051833 0 10.948353 4.89652 10.948353 10.94733L665.274384 266.247268C665.273361 272.298078 660.376841 277.194598 654.325008 277.194598z"  horiz-adv-x="1024" />

    
    <glyph glyph-name="cuo" unicode="&#58970;" d="M884.03576-13.027319 569.920666 301.090844l314.109977 314.111001c15.730263 15.72924 15.730263 41.232077 0 56.960293-15.730263 15.72924-41.231053 15.72924-56.961316 0L512.95935 358.049091 198.847326 672.161115c-15.728216 15.727193-41.234123 15.727193-56.958246 0-15.730263-15.730263-15.730263-41.231053 0-56.961316L455.999057 301.090844 141.886009-13.027319c-15.727193-15.730263-15.727193-41.231053 0-56.961316 15.727193-15.725146 41.2331-15.725146 56.961316 0l314.112024 314.117141 314.116117-314.117141c15.72924-15.730263 41.23003-15.730263 56.960293 0C899.761929-54.258373 899.761929-28.757582 884.03576-13.027319z"  horiz-adv-x="1024" />

    
    <glyph glyph-name="iconfontshibai" unicode="&#58993;" d="M512.697 736.555c-247.539 0-448.208-200.669-448.208-448.208 0-247.54 200.669-448.208 448.208-448.208 247.54 0 448.208 200.668 448.208 448.208 0 247.539-200.668 448.208-448.208 448.208zM690.686 154.792c12.265-12.274 12.265-32.171 0-44.427-12.283-12.274-32.171-12.274-44.453 0l-133.316 133.316-133.327-133.316c-12.274-12.274-32.161-12.274-44.445 0-12.265 12.256-12.265 32.153 0 44.427l133.335 133.353-133.335 133.317c-12.265 12.256-12.265 32.171 0 44.444 12.283 12.256 32.171 12.256 44.445 0l133.327-133.335 133.316 133.335c12.283 12.256 32.171 12.256 44.453 0 12.265-12.274 12.265-32.189 0-44.444l-133.335-133.317 133.335-133.353z"  horiz-adv-x="1024" />

    
    <glyph glyph-name="iconfontqq" unicode="&#58988;" d="M512 812C229.376 812 0 582.624 0 300s229.376-512 512-512 512 229.376 512 512S794.624 812 512 812zM510.976-177.525333c-263.850667 0-477.866667 214.016-477.866667 477.866667s214.016 477.866667 477.866667 477.866667 477.866667-214.016 477.866667-477.866667S774.826667-177.525333 510.976-177.525333zM175.445333 276.448c-27.989333-65.877333-32.426667-128.682667-10.24-140.288 15.36-8.192 39.594667 10.24 62.464 44.032 8.874667-36.864 31.402667-69.973333 63.146667-96.938667-33.450667-12.288-54.954667-32.426667-54.954667-55.296 0-37.546667 59.050667-67.584 131.754667-67.584 65.536 0 119.808 24.576 130.048 57.002667 2.730667 0 12.970667 0 15.701333 0 10.24-32.426667 64.512-57.002667 130.048-57.002667 72.704 0 131.754667 30.378667 131.754667 67.584 0 22.869333-21.845333 43.008-54.954667 55.296 31.744 26.624 53.930667 60.074667 63.146667 96.938667 22.869333-33.792 46.762667-52.224 62.464-44.032 22.528 11.605333 18.090667 74.752-9.898667 140.288-21.845333 51.882667-51.882667 89.770667-74.752 98.304 0.341333 3.413333 0.341333 6.826667 0.341333 9.898667 0 20.138667-5.461333 38.570667-15.018667 53.589333 0 1.024 0 2.389333 0 3.413333 0 9.216-2.048 17.749333-5.802667 25.258667-5.802667 134.485333-93.184 241.322667-234.837333 241.322667-141.653333 0-229.376-106.837333-234.837333-241.322667-3.754667-7.509333-5.802667-16.042667-5.802667-25.258667 0-1.024 0-2.389333 0-3.413333-9.557333-15.018667-15.018667-33.450667-15.018667-53.589333 0-3.413333 0-6.826667 0.341333-9.898667C227.328 365.877333 197.290667 327.989333 175.445333 276.448L175.445333 276.448z"  horiz-adv-x="1024" />

    
    <glyph glyph-name="fenxiang" unicode="&#58889;" d="M703.743022 179.761522c-35.55989 0-68.273966-12.187577-94.195336-32.607652l-120.30704 101.528348c7.367805 17.877159 11.438517 37.451984 11.438517 57.985646 0 24.771173-5.91778 48.15372-16.409738 68.829622l101.391225 94.520747c16.777105-7.138584 35.228339-11.087523 54.606689-11.087523 77.103052 0 139.591245 62.488193 139.591245 139.581012 0 77.098959-62.494333 139.586129-139.591245 139.586129-77.098959 0-139.593292-62.488193-139.593292-139.586129 0-15.387455 2.498914-30.191626 7.099698-44.032866l-110.933555-103.415324c-15.214517 5.099135-31.498388 7.867178-48.433082 7.867178-84.105536 0-152.267962-68.158333-152.267962-152.262846 0-84.105536 68.162426-152.262846 152.267962-152.262846 21.285792 0 41.548278 4.370541 59.938114 12.253068l144.101979-121.602545c-0.662079-5.760191-1.013073-11.617595-1.013073-17.550725 0-84.10963 68.204381-152.267962 152.308895-152.267962 84.069721 0 152.267962 68.162426 152.267962 152.267962C856.010985 111.604212 787.81172 179.761522 703.743022 179.761522L703.743022 179.761522zM703.743022 179.761522"  horiz-adv-x="1024" />

    
    <glyph glyph-name="qiehuanzuo" unicode="&#58881;" d="M223.767901 714.923034 404.893098 714.923034 799.889291 288.914524 403.869792-106.081669 223.767901-106.081669 617.740788 289.93783Z"  horiz-adv-x="1024" />

    
    <glyph glyph-name="jianli" unicode="&#58916;" d="M550.970058 646.5846c0-23.537066-18.438954-42.617633-41.180911-42.617633l0 0c-22.745027 0-41.183981 19.080567-41.183981 42.617633L468.605166 761.21843c0 23.537066 18.438954 42.617633 41.183981 42.617633l0 0c22.74298 0 41.180911-19.080567 41.180911-42.617633L550.970058 646.5846zM784.45988 646.583576c0-23.537066-18.439978-42.61661-41.182958-42.61661l0 0c-22.74605 0-41.183981 19.079544-41.183981 42.61661L702.092941 761.217407c0 23.538089 18.438954 42.618657 41.183981 42.618657l0 0c22.744004 0 41.182958-19.080567 41.182958-42.618657L784.45988 646.583576zM316.185754 646.583576c0-23.537066-18.438954-42.61661-41.182958-42.61661l0 0c-22.74605 0-41.182958 19.079544-41.182958 42.61661L233.819838 761.217407c0 23.538089 18.437931 42.618657 41.182958 42.618657l0 0c22.744004 0 41.182958-19.080567 41.182958-42.618657L316.185754 646.583576zM194.124767 712.589896c-6.485715-161.186076 64.857147-154.023956 80.879052-154.023956 118.496811 3.891633 99.425454 154.023956 99.425454 154.023956s9.079796 0.338714 46.697555 0c-3.891633-165.076686 72.640414-151.428851 88.660272-151.428851 108.11844 18.160615 89.049129 153.401786 89.049129 153.401786s24.64633 0.959861 46.697555 0c7.783267-151.429875 75.234495-154.699338 97.743138-154.699338 95.148034 6.485715 79.967286 154.076144 79.967286 154.076144s36.320207 1.583055 89.5045-0.295735c50.589189 4.606925 43.549865-46.116317 43.549865-46.116317s0-764.023944 0-818.504766-44.846394-49.831942-44.846394-49.831942-749.754962 0-801.641703 0c-51.885717 0-46.530756 48.535413-46.530756 48.535413s0 762.726392 0 819.801295 46.530756 45.062312 46.530756 45.062312S147.426189 712.927587 194.124767 712.589896zM845.296457 406.326631c0 22.469758-17.593703 40.683585-39.294958 40.683585l-589.444836 0c-21.702278 0-39.294958-18.213827-39.294958-40.683585l0-8.135284c0-22.468734 17.593703-40.682561 39.294958-40.682561l589.444836 0c21.701255 0 39.294958 18.213827 39.294958 40.682561L845.296457 406.326631zM842.702376 205.267429c0 22.469758-17.593703 40.685631-39.294958 40.685631L213.962581 245.95306c-21.702278 0-39.295981-18.215874-39.295981-40.685631l0-8.134261c0-22.469758 17.593703-40.684608 39.295981-40.684608l589.443813 0c21.701255 0 39.294958 18.21485 39.294958 40.684608L842.701352 205.267429zM842.702376 4.20925c0 22.469758-17.593703 40.683585-39.294958 40.683585L213.962581 44.892835c-21.702278 0-39.295981-18.213827-39.295981-40.683585l0-8.136308c0-22.469758 17.593703-40.683585 39.295981-40.683585l589.443813 0c21.701255 0 39.294958 18.213827 39.294958 40.683585L842.701352 4.20925z"  horiz-adv-x="1024" />

    
    <glyph glyph-name="zhiding01" unicode="&#59001;" d="M798.197254 113.644685 504.384555 391.599208 227.79103 115.005682l-60.3239 60.3239L473.389634 481.264367c16.303314 16.330944 42.687218 16.692171 59.489906 0.832971l323.974649-306.463834L798.197254 113.644685z"  horiz-adv-x="1024" />

    
    <glyph glyph-name="jiazai" unicode="&#59010;" d="M535.808 640.5568m-100.5312 0a3.927 3.927 0 1 0 201.0624 0 3.927 3.927 0 1 0-201.0624 0ZM535.8336 520.8256c-66.0224 0-119.7568 53.7088-119.7568 119.7312s53.7344 119.7312 119.7568 119.7312 119.7312-53.7088 119.7312-119.7312S601.856 520.8256 535.8336 520.8256zM535.8336 721.8624c-44.8512 0-81.3568-36.48-81.3568-81.3312s36.5056-81.3312 81.3568-81.3312 81.3312 36.48 81.3312 81.3312S580.6848 721.8624 535.8336 721.8624zM280.96 535.1616m-90.1888 0a3.523 3.523 0 1 0 180.3776 0 3.523 3.523 0 1 0-180.3776 0ZM280.96 425.7728c-60.288 0-109.3632 49.0752-109.3632 109.3888 0 60.288 49.0752 109.3632 109.3632 109.3632 60.3136 0 109.3888-49.0752 109.3888-109.3632C390.3488 474.848 341.2736 425.7728 280.96 425.7728zM280.96 606.1504c-39.1168 0-70.9632-31.8464-70.9632-70.9632 0-39.1424 31.8464-70.9888 70.9632-70.9888 39.1424 0 70.9888 31.8464 70.9888 70.9888C351.9488 574.304 320.1024 606.1504 280.96 606.1504zM172.6464 274.8864m-77.2608 0a3.018 3.018 0 1 0 154.5216 0 3.018 3.018 0 1 0-154.5216 0ZM172.6464 178.4256c-53.1712 0-96.4608 43.264-96.4608 96.4864 0 53.1712 43.264 96.4608 96.4608 96.4608s96.4608-43.264 96.4608-96.4608C269.1072 221.6896 225.8176 178.4256 172.6464 178.4256zM172.6464 332.9472c-32 0-58.0608-26.0608-58.0608-58.0608 0-32.0256 26.0608-58.0864 58.0608-58.0864s58.0608 26.0608 58.0608 58.0864C230.7072 306.912 204.6464 332.9472 172.6464 332.9472zM280.96 15.2m-62.592 0a2.445 2.445 0 1 0 125.184 0 2.445 2.445 0 1 0-125.184 0ZM280.96-66.592c-45.1072 0-81.792 36.7104-81.792 81.792s36.7104 81.792 81.792 81.792 81.792-36.7104 81.792-81.792S326.0416-66.592 280.96-66.592zM280.96 58.592c-23.936 0-43.392-19.4816-43.392-43.392s19.4816-43.392 43.392-43.392 43.392 19.4816 43.392 43.392S304.8704 58.592 280.96 58.592zM535.808-88.8128m-52.2496 0a2.041 2.041 0 1 0 104.4992 0 2.041 2.041 0 1 0-104.4992 0ZM535.8336-160.2624c-39.3984 0-71.4752 32.0512-71.4752 71.4496s32.0768 71.4496 71.4752 71.4496 71.4496-32.0512 71.4496-71.4496S575.232-160.2624 535.8336-160.2624zM535.8336-55.7632c-18.2528 0-33.0752-14.8224-33.0752-33.0496s14.8224-33.0496 33.0752-33.0496c18.2272 0 33.0496 14.8224 33.0496 33.0496S554.0608-55.7632 535.8336-55.7632zM794.5216 18.1184m-38.4768 0a1.503 1.503 0 1 0 76.9536 0 1.503 1.503 0 1 0-76.9536 0ZM794.5216-39.584c-31.8208 0-57.7024 25.8816-57.7024 57.6768 0 31.8208 25.8816 57.7024 57.7024 57.7024s57.7024-25.8816 57.7024-57.7024C852.224-13.7024 826.3424-39.584 794.5216-39.584zM794.5216 37.3952c-10.6496 0-19.3024-8.6528-19.3024-19.3024 0-10.624 8.6528-19.2768 19.3024-19.2768s19.3024 8.6528 19.3024 19.2768C813.824 28.7424 805.1712 37.3952 794.5216 37.3952zM900.48 274.4768m-28.1344 0a1.099 1.099 0 1 0 56.2688 0 1.099 1.099 0 1 0-56.2688 0ZM900.48 227.1168c-26.112 0-47.36 21.248-47.36 47.36s21.248 47.36 47.36 47.36 47.3344-21.248 47.3344-47.36S926.5664 227.1168 900.48 227.1168zM900.48 283.4368c-4.9152 0-8.96-4.0192-8.96-8.96s4.0192-8.96 8.96-8.96 8.9344 4.0192 8.9344 8.96S905.3952 283.4368 900.48 283.4368zM794.5216 531.6032m-17.536 0a0.685 0.685 0 1 0 35.072 0 0.685 0.685 0 1 0-35.072 0ZM794.5216 531.6032m-36.736 0a1.435 1.435 0 1 0 73.472 0 1.435 1.435 0 1 0-73.472 0Z"  horiz-adv-x="1024" />

    
    <glyph glyph-name="jinlingyingcaiwangtubiao45" unicode="&#59084;" d="M722.099 478.976c-43.904 0-79.616 35.712-79.616 79.616v194.432h-449.766c-40.32 0-73.114-32.794-73.114-73.114v-778.317c0-40.32 32.794-73.088 73.114-73.088h640.154c40.32 0 73.114 32.794 73.114 73.088v577.382h-183.885zM726.938 32.563h-435.021c-10.598 0-19.2 8.602-19.2 19.2s8.602 19.2 19.2 19.2h435.021c10.598 0 19.2-8.602 19.2-19.2s-8.602-19.2-19.2-19.2zM726.938 172.8h-435.021c-10.598 0-19.2 8.602-19.2 19.2s8.602 19.2 19.2 19.2h435.021c10.598 0 19.2-8.602 19.2-19.2s-8.602-19.2-19.2-19.2zM726.938 313.062h-435.021c-10.598 0-19.2 8.602-19.2 19.2s8.602 19.2 19.2 19.2h435.021c10.598 0 19.2-8.602 19.2-19.2s-8.602-19.2-19.2-19.2zM722.099 520.806h146.739l-184.525 192v-154.214c-0.026-20.838 16.947-37.786 37.786-37.786z"  horiz-adv-x="1024" />

    
    <glyph glyph-name="jinlingyingcaiwangtubiao14" unicode="&#59287;" d="M535.347 662.246c-6.758 3.123-14.746 2.099-20.454-2.714l-249.19-209.715-198.349 0c-10.598 0-19.2-8.602-19.2-19.2v-329.062c0-10.598 8.602-19.2 19.2-19.2h198.323l249.19-209.715c3.533-2.97 7.936-4.506 12.365-4.506 2.739 0 5.504 0.589 8.090 1.792 6.784 3.149 11.11 9.958 11.11 17.408v757.478c0 7.475-4.326 14.285-11.085 17.434zM508.032-71.45l-223.027 187.725c-4.301 3.635-9.677 4.89-14.848 4.198-0.461 0.026-0.87 0.282-1.357 0.282h-182.246v290.637h186.138c0.922 0 1.715 0.41 2.611 0.538 1.331 0.179 2.637 0.333 3.917 0.794 1.306 0.486 2.406 1.229 3.584 1.946 0.742 0.461 1.587 0.666 2.253 1.229l222.976 187.674v-675.021zM677.555 491.213c-8.090 6.835-20.198 5.786-27.059-2.304-6.835-8.115-5.811-20.224 2.304-27.059 57.882-48.794 91.085-120.141 91.085-195.789 0-72.909-31.232-142.592-85.709-191.13-7.91-7.066-8.602-19.2-1.562-27.11 3.789-4.275 9.062-6.426 14.362-6.426 4.531 0 9.088 1.613 12.774 4.864 62.643 55.834 98.56 135.962 98.56 219.802-0.026 87.014-38.195 169.062-104.755 225.152zM785.101 579.226c-9.114 5.325-20.89 2.304-26.291-6.81-5.376-9.139-2.33-20.89 6.81-26.291 98.842-58.163 160.256-165.478 160.256-280.038 0-113.946-60.902-220.979-158.95-279.296-9.114-5.427-12.109-17.203-6.682-26.317 3.584-6.042 9.984-9.395 16.512-9.395 3.354 0 6.733 0.87 9.805 2.688 109.645 65.203 177.741 184.883 177.741 312.294-0.026 128.128-68.685 248.115-179.2 313.165z"  horiz-adv-x="1024" />

    
    <glyph glyph-name="pdf" unicode="&#58901;" d="M895.469672 584.309254 667.839301 584.309254 667.839301 811.939625 895.469672 584.309254zM639.627772 556.096702 639.627772 811.939625l-511.725754 0.060375 0-447.784466 767.567653 0L895.469672 556.096702 639.627772 556.096702zM278.962479 168.869451c-5.446036 3.290953-11.751648 5.513574-18.909675 6.661723-7.16519 1.140986-14.612813 1.719154-22.349007 1.719154l-52.43421 0 0-91.974761 52.43421 0c7.736195 0 15.183817 0.571005 22.349007 1.720178 7.158027 1.140986 13.46364 3.363607 18.909675 6.661723 5.438872 3.290953 9.81146 7.951089 13.109576 13.967106 3.290953 6.018064 4.942569 13.894452 4.942569 23.639396 0 9.737782-1.651616 17.621333-4.942569 23.638373C288.773939 160.918361 284.402375 165.572358 278.962479 168.869451zM0.618077 300.254803l0-447.724091 1022.763846 0L1023.381923 300.254803 0.618077 300.254803zM356.540346 94.945811c-3.868097-11.892865-10.033517-22.422685-18.481933-31.589462-8.454556-9.172917-19.414165-16.546861-32.878828-22.134113-13.470803-5.587252-29.80277-8.380878-48.995901-8.380878l-70.91512 0L185.268564-77.184525l-67.476811 0L117.791753 229.684538l138.39193 0c19.193131 0 35.525098-2.792603 48.995901-8.379854 13.464663-5.587252 24.424272-12.968359 32.878828-22.135136 8.448416-9.172917 14.612813-19.629059 18.481933-31.373545 3.867074-11.751648 5.802146-23.927969 5.802146-36.532031C362.342492 118.940294 360.40742 106.831512 356.540346 94.945811zM654.723585 16.079602c-5.734608-18.909675-14.397918-35.241642-26.002211-48.995901-11.604292-13.752212-26.075889-24.571628-43.408649-32.44904-17.3389-7.883551-37.754882-11.819187-61.245899-11.819187L391.69296-77.184525 391.69296 229.684538l132.373867 0c19.770276 0 38.178531-3.155876 55.228859-9.455349 17.043165-6.305613 31.804357-15.759939 44.268226-28.366048 12.463869-12.611226 22.200628-28.366048 29.225625-47.276746 7.017834-18.909675 10.529821-41.11849 10.529821-66.617234C663.319357 55.620154 660.452054 34.990301 654.723585 16.079602zM918.225955 172.953466l-148.277068 0 0-70.916143 128.506792 0 0-52.433186-128.506792 0 0-126.787638L702.473099-77.183502 702.473099 229.684538l215.753879 0L918.226978 172.953466zM576.50206 145.445972c-6.876618 8.878205-15.975856 15.687284-27.291576 20.414959-11.32186 4.727675-25.289989 7.092535-41.904389 7.092535l-48.136324 0 0-193.404871 60.171428 0c9.737782 0 19.192108 1.570775 28.366048 4.726651 9.166777 3.149736 17.33276 8.380878 24.496927 15.687284 7.15905 7.30743 12.894681 16.829294 17.192567 28.581965 4.296863 11.745509 6.446829 26.069749 6.446829 42.97886 0 15.47239-1.505283 29.440519-4.51278 41.903366C588.321246 125.89059 583.378677 136.561627 576.50206 145.445972z"  horiz-adv-x="1024" />

    
    <glyph glyph-name="xuexi" unicode="&#58918;" d="M1277.088512 469.365828l0-213.00761 51.350798-58.778878-98.582587-85.454538-90.091616 85.454538 54.188013 60.327003L1193.95312 434.12258C902.672178 315.301272 823.810243 278.378559 759.223161 249.543064c-64.599243-28.833063-111.125681-28.687128-175.199559-4.800038-64.065365 23.879793-354.550962 134.007037-505.99234 205.719384-101.065911 47.854444-107.568521 78.182122 1.734192 118.789689C222.405749 622.867319 443.66597 708.72561 568.638429 755.581617c73.984065 29.619894 113.093368 45.78217 180.99925 12.010432 121.249906-49.537559 383.795075-152.39117 521.552635-208.658754C1391.123159 507.145908 1310.495413 490.116537 1277.088512 469.365828L1277.088512 469.365828 1277.088512 469.365828zM773.269383 161.181991c70.439066 28.762528 165.414632 76.309293 268.972379 120.201608l0-352.419098c0 0-133.938934-140.964477-369.387664-140.964477C419.293647-211.999977 282.327783-71.035499 282.327783-71.035499L282.327783 257.906343c79.930907-32.212669 169.683225-59.930547 278.308556-96.724351C627.5827 137.625687 712.534979 129.482527 773.269383 161.181991L773.269383 161.181991 773.269383 161.181991zM773.269383 161.181991"  horiz-adv-x="1335" />

    
    <glyph glyph-name="bianji" unicode="&#59455;" d="M916.887982 556.82325c0 0 33.972742 26.381857-1.25662 61.553914L811.312458 727.230338c0 0-31.133068 42.385343-67.617004 5.955642l-69.420069-74.662467 175.050852-170.572864L916.887982 556.82325zM809.891086 442.098345 624.573403 617.39479 203.797058 194.106228l189.742459-163.061796L809.891086 442.098345zM181.07659-79.230114l-70.89363 65.513086-17.744129-78.31874-0.062422 0 0-55.9288 838.928934 0 0 55.9288L94.23371-92.035768 181.07659-79.230114zM339.140559-14.806849 152.401504 141.617783l-23.703865-105.055684 108.416222-91.62172L339.140559-14.806849z"  horiz-adv-x="1024" />

    
    <glyph glyph-name="xiaoxi" unicode="&#58937;" d="M594.917478 667.601262c0 43.803645-37.123502 79.478146-82.916455 79.478146-45.699832 0-82.918501-35.585473-82.918501-79.478146 0-4.472871 0.38681-8.860808 1.12973-13.133112-114.497731-38.254256-208.430076-155.73083-208.430076-294.718325l0-109.423155c0 0 0-157.590178-40.387849-158.963455-24.082488 0-42.528606-17.792225-42.528606-39.74112 0-22.098297 18.557658-39.737026 41.452087-39.737026l663.36643 0c23.004947 0 41.451064 17.791202 41.451064 39.737026 0 22.103414-18.557658 39.74112-41.451064 39.74112-41.46539 0-41.46539 157.854191-41.46539 157.854191L802.218848 359.736523c0 139.166573-87.828324 256.691243-208.408587 294.828842C594.538855 658.809015 594.917478 663.161137 594.917478 667.601262zM636.377752-27.789535c-0.12382-65.903989-55.286164-119.28885-124.377752-119.28885-68.616774 0-124.254955 53.163827-124.378775 119.28885L636.377752-27.789535z"  horiz-adv-x="1024" />

    
    <glyph glyph-name="7yuyuedingdanwudingdan" unicode="&#58956;" d="M110.652283-85.809479c-33.903603 0-61.583278 27.691675-61.583278 61.591278L49.069005 656.137827c0 34.1036 27.675676 61.607278 61.583278 61.607278l75.167119 0c11.367867 0 20.531759 9.163893 20.531759 20.543759 0 11.367867-9.163893 20.531759-20.531759 20.531759L110.652283 758.820623c-56.615337 0-102.658797-46.031461-102.658797-102.662797l0-680.160029c0-56.635336 46.04346-102.710796 102.658797-102.710796l298.6285 0-40.883521 40.94352L110.652283-85.769479 110.652283-85.809479 110.652283-85.809479zM816.160016 656.137827c0 56.643336-46.023461 102.658797-102.658797 102.658797L639.078091 758.796623c-11.379867 0-20.531759-9.171893-20.531759-20.531759 0-11.379867 9.151893-20.543759 20.531759-20.543759l74.423128 0c33.919603 0 61.611278-27.687676 61.611278-61.603278L775.112497 496.563697l41.067519-41.075519L816.180015 656.137827 816.160016 656.137827 816.160016 656.137827zM613.730388 638.726031 210.407114 638.726031c-25.471702 0-46.003461-20.51976-46.003461-46.019461 0-25.475701 20.531759-46.003461 46.003461-46.003461l403.323274 0c25.347703 0 46.06746 20.531759 46.06746 46.003461C659.793848 618.202271 639.262089 638.726031 613.730388 638.726031L613.730388 638.726031 613.730388 638.726031zM534.931311 738.64486C534.931311 779.152385 502.087696 812 461.588171 812L362.581331 812C322.077806 812 289.27419 779.152385 289.27419 738.64486L289.27419 634.162084l245.657121 0L534.931311 738.64486 534.931311 738.64486 534.931311 738.64486zM412.076751 673.549622c-26.779686 0-48.579431 21.815744-48.579431 48.579431 0 26.767686 21.799745 48.60343 48.579431 48.60343 26.767686 0 48.567431-21.835744 48.567431-48.60343C460.644182 695.365367 438.840437 673.549622 412.076751 673.549622L412.076751 673.549622 412.076751 673.549622zM638.722095 435.740409c0-12.495854-22.831732-22.591735-51.051402-22.591735L216.73504 413.148674c-28.18767 0-51.059402 10.099882-51.059402 22.591735l0 0c0 12.471854 22.859732 22.571735 51.059402 22.571735l370.935653 0C615.890363 458.288145 638.722095 448.212263 638.722095 435.740409L638.722095 435.740409 638.722095 435.740409zM638.722095 246.306629c0-12.495854-22.831732-22.575735-51.051402-22.575735L216.73504 223.730894c-28.18767 0-51.059402 10.079882-51.059402 22.575735l0 0c0 12.491854 22.859732 22.567736 51.059402 22.567736l370.935653 0C615.890363 268.874365 638.722095 258.798483 638.722095 246.306629L638.722095 246.306629 638.722095 246.306629zM596.090595 56.920849c0-12.499854 19.795768-22.619735-8.419901-22.619735L216.73504 34.301114c-28.18767 0-51.059402 10.119881-51.059402 22.619735l0 0c0 12.447854 22.859732 22.571735 51.059402 22.571735l370.935653 0C615.890363 79.488584 596.090595 69.368703 596.090595 56.920849L596.090595 56.920849 596.090595 56.920849zM859.355509 185.395343c12.635852 3.539959 24.72771 7.095917 36.395573 10.619876 10.119881 3.059964 20.47976 6.071929 31.103636 9.131893 10.623876 3.035964 19.443772 5.807932 26.507689 8.343902l-10.619876-40.211529c-3.035964-11.139869-5.807932-19.463772-8.323902-25.035707-5.067941-13.63184-11.003871-26.271692-17.831791-37.891556-6.79992-11.615864-13.267845-21.763745-19.339773-30.347644-7.091917-10.143881-14.415831-19.435772-21.983742-28.075671l-93.266907-28.047671 76.583103-13.65584c-10.119881-8.5559-20.959754-17.419796-32.579618-26.523689-10.139881-7.539912-21.619747-15.531818-34.519595-23.90772-12.899849-8.315903-26.387691-16.071812-40.539525-23.135729-14.159834-7.067917-29.971649-10.691875-47.447444-11.003871-17.419796-0.235997-33.971602 0.88399-49.663418 3.41596-18.211787 2.53997-36.375574 6.82792-54.58336 12.907849 5.547935 8.579899 11.615864 18.203787 18.207787 28.819662 5.551935 9.107893 12.235857 19.875767 20.107764 32.223622 7.823908 12.399855 16.027812 26.199693 24.627711 41.327516 24.235716 40.96752 47.731441 81.159049 70.539173 120.582587 22.711734 39.407538 43.195494 75.06312 61.40728 106.902747 20.747757 36.915567 40.735523 71.791159 59.931298 104.666773-23.775721-27.29168-48.791428-57.899321-75.06312-91.758925-22.759733-28.835662-48.035437-63.095261-75.871111-102.742796-27.807674-39.687535-56.115342-83.027027-84.919005-130.070476-6.071929-9.571888-12.899849-20.763757-20.48776-33.355609-7.559911-12.659852-15.531818-26.055695-23.89572-40.239528-8.323902-14.119835-16.907802-28.683664-25.755698-43.571489-8.839896-14.891825-17.571794-29.495654-26.167693-43.579489-20.223763-32.911614-40.97152-67.287211-62.199271-103.182791 0.499994 10.619876 2.53597 24.275716 6.079929 40.96752 2.999965 14.155834 8.071905 31.867627 15.147822 53.083378 7.079917 21.223751 17.203798 46.255458 30.359644 75.039121 8.5719 18.231786 15.147822 32.359621 19.687769 42.491502 4.587946 10.095882 8.131905 17.91579 10.623876 23.515724 2.53997 6.071929 4.539947 10.119881 6.067929 12.135858-2.53597 3.007965-3.043964 9.103893-1.527982 18.207787 1.043988 8.083905 3.959954 19.819768 8.739898 35.255587 4.799944 15.411819 13.019847 37.011566 24.631711 64.82324 11.615864 28.307668 26.931684 58.799311 45.879462 91.398929s40.327527 64.935239 64.083249 97.038863c23.755722 32.111624 49.53542 63.195259 77.343094 93.298907 27.835674 30.071648 56.259341 56.719335 85.299 79.991063 29.119659 23.255727 58.183318 42.331504 87.250978 57.279329 29.01966 14.903825 57.235329 23.387726 84.543009 25.395702 0.475994-17.699793-1.255985-41.099518-5.279938-70.155178-4.031953-29.05566-9.127893-60.151295-15.199822-93.282907-6.019929-33.119612-12.871849-66.727218-20.43976-100.830818-7.603911-34.1316-14.931825-65.075237-22.023742-92.882912L859.355509 185.395343 859.355509 185.395343zM859.355509 185.395343"  horiz-adv-x="1024" />

    
    <glyph glyph-name="lianjie" unicode="&#58976;" d="M75.741867 659.765333c48.8448 48.8448 113.800533 75.741867 182.818133 75.741867 0.1024 0 0.1024 0 0.1024 0 69.0176 0 133.9904-26.914133 182.818133-75.741867l408.0128-407.944533 0-0.1024 115.5584-115.5584c69.802667-69.802667 69.802667-183.296 0-253.064533-33.774933-33.792-78.711467-52.394667-126.5664-52.394667-47.752533 0-92.689067 18.602667-126.464 52.394667L480.8704 114.263467l0.136533 0.170667L204.680533 390.794667c-18.705067 18.705067-29.098667 43.6736-29.098667 70.161067 0 26.5216 10.3936 51.456 29.098667 70.212267 18.756267 18.722133 43.690667 29.047467 70.178133 29.047467 26.5216 0 51.456-10.308267 70.161067-29.047467l442.845867-442.862933-27.665067-27.665067L317.3888 503.502933c-22.7328 22.698667-62.276267 22.698667-85.009067 0-11.383467-11.400533-17.664-26.436267-17.664-42.5472 0-16.042667 6.280533-31.146667 17.664-42.496l501.947733-501.9648-0.170667-0.238933 5.495467-5.5296c26.385067-26.368 61.5424-40.891733 98.833067-40.891733 37.376 0 72.448 14.5408 98.901333 40.891733 54.510933 54.562133 54.510933 143.274667 0 197.7344L706.286933 339.645867l0 0.034133L413.8496 632.0832c-41.472 41.472-96.5632 64.290133-155.1872 64.290133-58.641067 0-113.8176-22.818133-155.2384-64.290133-41.506133-41.472-64.273067-96.5632-64.273067-155.1872 0-58.641067 22.766933-113.783467 64.273067-155.255467l458.888533-458.888533-27.665067-27.6992L75.741867 293.992533C26.897067 342.837333 0 407.810133 0 476.913067 0 545.998933 26.897067 610.920533 75.741867 659.765333z"  horiz-adv-x="1024" />

    
    <glyph glyph-name="xinlangweibo" unicode="&#59015;" d="M427.52 212.96c-6.4-5.12-8.96-15.36-5.12-21.76 3.84-6.4 11.52-6.4 19.2-1.28 6.4 5.12 8.96 15.36 5.12 21.76C444.16 216.8 435.2 219.36 427.52 212.96zM426.24 329.44c-108.8-5.12-197.12-64-197.12-138.24 0-74.24 88.32-129.28 197.12-124.16 108.8 5.12 197.12 74.24 197.12 148.48C623.36 288.48 535.04 334.56 426.24 329.44zM500.48 143.84c-33.28-43.52-99.84-65.28-162.56-29.44-30.72 16.64-29.44 49.92-29.44 49.92s-12.8 103.68 97.28 116.48C514.56 293.6 533.76 187.36 500.48 143.84zM376.32 198.88c-20.48-2.56-34.56-20.48-34.56-37.12 0-17.92 16.64-29.44 37.12-26.88 20.48 2.56 37.12 17.92 37.12 35.84C414.72 187.36 399.36 201.44 376.32 198.88zM512 812C229.12 812 0 582.88 0 300c0-282.88 229.12-512 512-512s512 229.12 512 512C1024 582.88 794.88 812 512 812zM720.64 165.6C675.84 69.6 528.64 22.24 418.56 31.2c-103.68 8.96-238.08 43.52-252.16 171.52 0 0-7.68 57.6 47.36 133.12 0 0 79.36 112.64 172.8 144.64 92.16 32 103.68-21.76 103.68-53.76-5.12-26.88-14.08-43.52 20.48-32 0 0 90.88 43.52 129.28 5.12 30.72-30.72 5.12-72.96 5.12-72.96s-12.8-14.08 12.8-19.2C684.8 301.28 765.44 262.88 720.64 165.6zM631.04 433.12c-10.24 0-17.92 7.68-17.92 17.92 0 10.24 7.68 17.92 17.92 17.92 0 0 111.36 20.48 98.56-101.12 0-1.28 0-1.28 0-2.56-1.28-8.96-8.96-15.36-17.92-15.36-10.24 0-17.92 7.68-17.92 17.92C693.76 369.12 711.68 451.04 631.04 433.12zM820.48 335.84 820.48 335.84c-2.56-20.48-12.8-21.76-25.6-21.76-14.08 0-25.6 8.96-25.6 24.32 0 12.8 5.12 25.6 5.12 25.6 1.28 5.12 14.08 38.4-7.68 88.32-39.68 67.84-120.32 69.12-129.28 65.28-8.96-3.84-23.04-5.12-23.04-5.12-14.08 0-25.6 11.52-25.6 26.88 0 12.8 7.68 23.04 19.2 25.6 0 0 0 0 0 0 1.28 0 1.28 1.28 2.56 1.28 11.52 2.56 51.2 10.24 89.6 1.28C768 548.32 862.72 480.48 820.48 335.84z"  horiz-adv-x="1024" />

    
    <glyph glyph-name="setting" unicode="&#58938;" d="M923.504 358.107h-41.271c-18.842 0-38.896 14.75-44.514 32.793l-23.638 57.522c-8.962 16.639-5.281 41.174 7.992 54.542l29.257 29.185c13.417 13.419 13.417 35.288 0 48.633l-48.585 48.561c-13.368 13.345-35.216 13.345-48.634 0l-29.209-29.209c-13.319-13.368-37.927-17.027-54.59-8.088l-57.449 23.663c-17.971 5.57-32.794 25.625-32.794 44.539v41.221c0 18.843-15.499 34.344-34.343 34.344h-68.638c-18.939 0-34.39-15.501-34.39-34.344v-41.222c0-18.915-14.726-38.97-32.794-44.539l-57.498-23.663c-16.664-8.938-41.174-5.305-54.494 8.088l-29.306 29.209c-13.367 13.345-35.215 13.345-48.535 0l-48.586-48.561c-13.368-13.345-13.368-35.214 0-48.584l29.161-29.233c13.418-13.368 17.050-37.903 8.089-54.542l-23.638-57.546c-5.62-18.019-25.626-32.817-44.564-32.817l-41.223 0.048c-18.842 0-34.342-15.453-34.342-34.367v-68.639c0-18.914 15.5-34.389 34.342-34.389h41.223c18.938-0.049 38.896-14.799 44.466-32.795l23.737-57.523c8.864-16.66 5.279-41.292-8.089-54.59l-29.257-29.186c-13.272-13.367-13.272-35.238 0-48.607l48.682-48.61c13.32-13.344 35.168-13.344 48.535 0l29.258 29.258c13.32 13.295 37.832 16.951 54.445 7.942l57.595-23.637c18.068-5.618 32.794-25.625 32.794-44.565v-41.075c0-18.868 15.403-34.344 34.39-34.344h68.638c18.844 0 34.343 15.476 34.343 34.344v41.075c0 18.94 14.823 38.947 32.794 44.565l57.546 23.637c16.663 9.010 41.271 5.353 54.591-7.942l29.111-29.258c13.418-13.344 35.264-13.344 48.634 0l48.585 48.61c13.417 13.37 13.417 35.24 0 48.607l-29.257 29.186c-13.273 13.298-16.954 37.929-7.992 54.59l23.638 57.523c5.619 17.996 25.721 32.746 44.514 32.746h41.271c18.844 0 34.295 15.454 34.295 34.366v68.712c0.001 18.914-15.451 34.367-34.294 34.367M683.149 289.469c0-94.868-76.825-171.668-171.668-171.668-94.845 0-171.716 76.8-171.716 171.668 0 94.82 76.872 171.668 171.716 171.668 94.843-0 171.668-76.848 171.668-171.668z"  horiz-adv-x="1024" />

    
    <glyph glyph-name="iconsixin" unicode="&#58979;" d="M919.467 608h-814.933c-34.133 0-61.867-27.733-61.867-61.867v-516.267c0-34.133 27.733-61.867 61.867-61.867h814.933c34.133 0 61.867 27.733 61.867 61.867l0 516.267c0 34.133-27.733 61.867-61.867 61.867zM834.133 544l-326.4-241.067-320 241.067h646.4zM106.667 32v492.8l381.867-288c6.4-4.267 12.8-6.4 19.2-6.4s12.8 2.133 19.2 6.4l390.4 288v-492.8h-810.667z"  horiz-adv-x="1024" />

    
    <glyph glyph-name="shouqi" unicode="&#58974;" d="M512.43337 363.732533 251.754303 103.052442l42.335201-42.335201 218.343867 218.343867L730.777237 60.717242l42.339294 42.335201L512.43337 363.732533zM730.777237 300.230244l42.339294 42.335201L512.43337 603.245536 251.754303 342.565445l42.335201-42.335201 218.343867 218.34489L730.777237 300.230244zM512.43337 518.575134"  horiz-adv-x="1024" />

    
    <glyph glyph-name="shoucang" unicode="&#58917;" d="M702.131071 687.878788c-93.893818 0-161.150707-84.605414-190.140768-129.353697C482.974384 603.273374 415.747232 687.878788 321.858586 687.878788 187.126303 687.878788 77.550545 566.46497 77.550545 417.242828c0-69.772929 47.327677-169.808162 104.782869-222.157576 79.475071-102.110384 302.898424-285.923556 330.484364-285.923556 28.070788 0 246.702545 180.236929 327.611475 284.696566 58.46497 53.272566 106.020202 153.439677 106.020202 223.384566C946.449455 566.46497 836.858182 687.878788 702.131071 687.878788M888.84299 417.242828c0-55.802828-40.468687-139.081697-88.362667-181.838869-1.313616-1.197253-2.505697-2.504404-3.697778-3.944727C725.586101 138.696727 582.242909 23.636364 512.970343-26.758141 461.474263 10.934626 306.369293 128.37398 226.742949 231.823838c-1.071838 1.408-2.323394 2.721616-3.63701 3.943434-47.706505 42.702869-87.964444 125.763232-87.964444 181.475556 0 117.474263 83.752081 213.060525 186.717091 213.060525 66.368646 0 130.267798-71.83903 164.141253-143.066505 4.490343-9.438384 14.449778-15.317333 25.995636-15.317333 11.544566 0 21.500121 5.878949 26.020202 15.317333 33.842424 71.227475 97.711838 143.066505 164.115394 143.066505C805.090909 630.303354 888.84299 534.717091 888.84299 417.242828"  horiz-adv-x="1024" />

    
    <glyph glyph-name="wodedingdan" unicode="&#58912;" d="M511.707-159.741c-105.734-0.003-211.467-0.010-317.201 0.002-64.962 0.005-116.769 43.304-128.176 107.354-1.235 6.934-1.61 14.099-1.612 21.158-0.083 201.625-0.089 403.249-0.055 604.875 0.011 64.288 44.972 117.695 108.399 127.092 17.764 2.632 36.165 2.087 54.208 1.364 17.334-0.695 29.376-15.888 28.627-33.535-0.696-16.426-14.495-29.357-31.586-29.697-14.154-0.281-28.461 0.538-42.427-1.252-29.849-3.823-52.861-30.675-53.584-60.746-0.043-1.77-0.019-3.544-0.019-5.316 0-200.049-0.002-400.099 0.001-600.148 0.001-40.157 27.34-67.525 67.432-67.525 210.68 0 421.365 0 632.045 0.002 40.099 0 67.411 27.366 67.411 67.543 0.003 200.246 0.005 400.492 0 600.739 0 38.902-27.631 66.604-66.516 66.704-9.844 0.025-19.69-0.092-29.535 0.031-16.844 0.212-30.617 12.986-31.542 29.095-1.013 17.674 10.644 33.163 28.044 34.014 23.316 1.141 46.814 2.212 69.82-4.197 54.55-15.195 93.262-65.177 93.301-121.834 0.144-203.002 0.167-406.005-0.004-609.008-0.058-69.737-57.065-126.541-126.868-126.666-106.721-0.191-213.44-0.050-320.16-0.050zM511.13 255.858c-73.234 0-146.468 0.062-219.7-0.072-10.373-0.018-19.572 2.362-26.61 10.244-8.599 9.631-10.954 20.84-6.291 32.925 4.854 12.58 14.589 19.112 27.894 20.426 2.147 0.212 4.326 0.156 6.49 0.156 145.876 0.006 291.751 0.019 437.628-0.058 4.677-0.003 9.53-0.314 13.998-1.565 14.496-4.058 24.316-19.009 22.469-33.416-2.091-16.322-14.318-27.863-30.276-28.54-2.554-0.107-5.116-0.097-7.675-0.097-72.643-0.004-145.286-0.003-217.927-0.003zM511.751 510.524c73.23 0 146.459-0.027 219.688 0.034 8.478 0.007 16.421-1.288 23.336-6.65 10.119-7.845 14.619-21.265 11.201-33.812-3.365-12.354-14.318-21.589-27.221-22.826-2.933-0.28-5.896-0.32-8.845-0.32-145.475-0.013-290.951-0.020-436.427 0.032-4.502 0.001-9.149 0.043-13.481 1.092-14.585 3.533-24.884 18.010-23.68 32.599 1.316 15.956 13.065 28.115 28.664 29.545 3.128 0.287 6.29 0.294 9.436 0.295 72.442 0.016 144.887 0.012 217.329 0.012zM511.12 64.136c-72.638 0-145.28-0.026-217.917 0.057-4.683 0.005-9.544 0.171-14.012 1.394-14.438 3.955-24.195 18.219-22.842 32.57 1.506 16.005 13.202 27.888 28.917 29.305 2.543 0.228 5.111 0.251 7.667 0.251 145.672 0.012 291.343 0.019 437.017-0.034 4.503 0 9.152-0.032 13.484-1.081 14.565-3.521 24.887-18.023 23.692-32.596-1.311-15.948-13.070-28.125-28.648-29.563-2.933-0.27-5.898-0.293-8.848-0.293-72.837-0.013-145.672-0.010-218.509-0.010zM498.111 638.877c-26.175 0-52.352-0.038-78.527 0.011-27.492 0.052-48.884 20.996-48.863 47.745 0.021 26.713 21.507 47.744 48.91 47.761 52.549 0.034 105.098 0.039 157.645-0.002 27.565-0.021 48.685-20.826 48.676-47.803-0.009-27.009-21.059-47.655-48.722-47.702-26.375-0.046-52.746-0.010-79.119-0.010z"  horiz-adv-x="1024" />

    
    <glyph glyph-name="appfandui" unicode="&#58906;" d="M840.683393 163.497093c46.391587 0 94.179986 14.724353 117.15014 58.038858 19.770276 37.329187 18.62008 83.107813 11.401678 123.549897-9.188266 51.335179-47.007617 211.104999-53.611012 240.166895-5.783727 25.348318-12.019755 48.752354-26.374694 70.860884-37.246299 57.17928-103.07968 92.046393-171.132612 92.046393L94.300224 748.16002c-14.522762 0-28.304649-3.751441-37.164435-16.388249-6.726192-9.494235-7.095605-19.85214-7.095605-30.742165-0.040932-75.395154-0.124843-378.011356-0.040932-453.979562 0.040932-10.748808 0.901533-20.016893 8.03807-29.246091 13.126972-16.777105 32.406061-14.890128 51.191916-14.97404l113.172549-0.243547c4.184299 0 12.510942-1.928932 17.842367-2.709715 8.613168-1.2689 17.188474-3.034103 25.677822-5.332449 17.187451-4.592598 33.883715-11.237949 49.634444-19.688411 31.009248-16.693194 57.999972-40.444131 78.591963-68.991304 23.708981-32.735565 38.519292-71.457472 42.826388-111.656009 2.00875-19.033495-0.493234-37.982056 4.26514-56.728002 4.266164-17.434068 12.880355-33.840736 24.692379-47.378054 26.006304-29.53364 66.737984-43.641963 105.418958-36.383652 33.143864 6.233981 62.268182 27.76946 78.264505 57.384965 8.614192 15.997346 12.592806 32.56979 15.505136 50.083675 3.773953 23.175839 5.739724 46.720068 5.578042 70.184479-0.327458 44.874023-7.956206 89.583295-22.682605 131.916449C712.250278 163.371226 776.446369 163.497093 840.683393 163.497093L840.683393 163.497093zM127.606795 280.767983 127.606795 669.977379c0 0 58.042951 0 77.895091 0 1.968841 0-0.040932-323.250148 0-389.375172C179.536514 280.64621 153.613098 280.688165 127.606795 280.767983L127.606795 280.767983zM847.409584 535.106646C853.562724 512.628702 804.830837 689.913431 847.409584 535.106646c3.855818-13.987572 32.240285-137.555889 42.002626-185.363731 4.103458-20.573571 7.628748-42.517349 3.774977-63.394842-5.087878-27.237341-25.76071-41.923832-52.66957-44.381813-14.520715-1.39886-198.205201-0.697895-240.701061-0.741897-18.499329 0-36.261878-4.428869-44.464701-23.3805-8.28571-18.99154 1.968841-35.029818 9.55768-51.846832 9.06547-19.938098 16.283872-40.856523 21.206998-62.186318 9.6815-41.183981 10.583033-83.596953 4.267187-125.352963-1.928932-12.511965-2.216481-25.517163-10.992355-35.769668-11.486612-13.45443-31.668257-16.572444-46.680159-6.972808-17.721617 11.402701-16.448624 30.191626-17.392112 48.403406-1.14815 21.820981-3.773953 43.641963-9.393951 64.810075-10.090822 37.902238-27.688619 74.653257-51.314713 106.526175-21.942755 29.491685-49.057299 55.088666-79.863932 75.187423-15.504112 10.092869-31.993668 18.786878-49.01739 26.006304-8.943696 3.693112-18.088984 7.055696-27.402093 10.008958-1.558495 0.409322-15.217586 3.691065-15.217586 4.428869 0 67.684542-0.246617 333.672522-0.36839 398.974807l0.163729 0c67.846224 0.039909 391.81371-0.555655 396.817678 0.183172 22.724561 3.445472 47.910173-1.455141 68.953442-9.946536C801.714869 638.886267 832.767096 588.351314 847.409584 535.106646L847.409584 535.106646zM847.409584 535.106646"  horiz-adv-x="1024" />

    
    <glyph glyph-name="zuoye1" unicode="&#58915;" d="M369.359302 636.018827l450.448132 0 0-51.323922L369.359302 584.694905 369.359302 636.018827 369.359302 636.018827 369.359302 636.018827zM369.359302 434.512441l450.448132 0 0-51.323922L369.359302 383.188518 369.359302 434.512441 369.359302 434.512441 369.359302 434.512441zM369.107569 233.006054l219.201397 0 0-51.322899L369.107569 181.683155 369.107569 233.006054 369.107569 233.006054 369.107569 233.006054zM190.126198 648.850064l78.902024 0 0-76.985372-78.902024 0L190.126198 648.850064 190.126198 648.850064 190.126198 648.850064zM190.126198 447.343677l78.902024 0 0-76.985372-78.902024 0L190.126198 447.343677 190.126198 447.343677 190.126198 447.343677zM189.874465 245.83729l78.906118 0 0-77.016071-78.906118 0L189.874465 245.83729 189.874465 245.83729 189.874465 245.83729zM521.673313-5.487735 130.362047-5.487735c-12.862959 0-16.721847 10.1645-16.721847 22.744004L113.6402 758.026602c0 12.547781 3.858888 22.745027 16.721847 22.745027l760.660336 0c12.861936 0 16.720823-10.165524 16.720823-22.745027l0-428.609755 0.031722 0c0-0.12689-0.031722-0.251733-0.031722-0.409322 0-13.805424 11.484565-25.00244 25.600051-25.00244 14.150278 0 25.603121 11.197016 25.603121 25.00244 0 0.124843-0.031722 0.251733-0.031722 0.409322l0.031722 0L958.946378 805.808862c0 14.176884-11.766998 25.66145-26.28976 25.66145L88.701205 831.470311c-14.527878 0-26.28976-11.484565-26.28976-25.66145l0-836.33076c0-14.180977 11.761881-25.660426 26.28976-25.660426l432.972109 0c14.370289 0 26.007327 11.353582 26.007327 25.347295C547.680641-16.810618 536.043602-5.487735 521.673313-5.487735L521.673313-5.487735 521.673313-5.487735zM996.181421 183.092247c4.550643 4.644787 7.404644 10.887978 7.404644 17.821901 0 14.182001-11.762905 25.66145-26.28976 25.66145-7.089465 0-13.520945-2.76088-18.255783-7.248078l0 0-0.094144-0.094144-0.470721-0.470721L769.359462 34.229848l-75.890434 74.072019c-4.770653 4.672416-11.357675 7.593955-18.665105 7.593955-14.526855 0-26.288736-11.484565-26.288736-25.666566 0-7.091512 2.948145-13.490246 7.682983-18.130939l0 0 75.984578-74.136487-0.534166-0.502443 37.20946-36.298717 0.533143 0.503467 0.534166-0.503467 37.20946 36.298717-0.534166 0.502443L996.181421 183.092247 996.181421 183.092247 996.181421 183.092247zM996.181421 183.092247"  horiz-adv-x="1024" />

    
    <glyph glyph-name="jia" unicode="&#58891;" d="M860.185562 470.004793 587.954391 470.004793 587.954391 742.169449 451.838294 742.169449 451.838294 470.004793 179.672614 470.004793 179.672614 333.888695 451.838294 333.888695 451.838294 61.69027 587.954391 61.69027 587.954391 333.888695 860.185562 333.888695Z"  horiz-adv-x="1024" />

    
    <glyph glyph-name="duduyinleappicon170101" unicode="&#58980;" d="M362.288768 29.297512c47.434336-20.063965 97.804537-30.237675 149.711743-30.237675 51.906184 0 102.275361 10.172687 149.709697 30.237675 45.799092 19.371186 86.924745 47.097668 122.234949 82.407871 35.30918 35.310204 63.034639 76.435856 82.405825 122.234949 20.061918 47.434336 30.234605 97.801467 30.234605 149.705604 0 51.904137-10.171664 102.271268-30.234605 149.70458-19.37221 45.800116-47.096644 86.925768-82.405825 122.236995-35.310204 35.310204-76.434833 63.037708-122.234949 82.408895-47.434336 20.062941-97.803513 30.236652-149.709697 30.236652-51.907207 0-102.276385-10.172687-149.711743-30.236652-45.800116-19.37221-86.925768-47.098691-122.234949-82.408895-35.310204-35.311227-63.035662-76.43688-82.405825-122.236995-20.061918-47.433312-30.234605-97.800443-30.234605-149.70458 0-51.904137 10.171664-102.272291 30.234605-149.705604 19.371186-45.799092 47.095621-86.924745 82.405825-122.234949C275.363 76.39518 316.488653 48.668699 362.288768 29.297512zM203.672214 529.513118c45.700855 71.021543 95.618754 106.532315 149.763932 106.532315 129.277342 0 193.920618-148.325164 193.920618-444.967304l98.924034 154.705478c59.972906 93.66424 89.958848 152.23317 89.958848 175.701674 0 7.821129-9.273201 11.734252-27.820626 11.734252l-24.731264 0 3.709485 18.835997 132.929522 0-4.019547-18.835997-25.65838 0L512.772085 95.044936l-32.423457-7.720845 1.853208 80.595596c0 159.53753-14.513552 270.292006-43.539632 332.258313-30.676673 65.256236-68.242244 97.886401-112.708991 97.886401-40.143279 0-75.654051-25.629727-106.532315-76.889181L203.672214 529.513118z"  horiz-adv-x="1024" />

    
    <glyph glyph-name="tongguo" unicode="&#58990;" d="M512.000512 831.023126c-246.902296 0-447.023126-200.082968-447.023126-447.02108 0-246.86955 200.12083-447.02415 447.023126-447.02415 246.866481 0 447.02108 200.154599 447.02108 447.02415C959.021591 630.939135 758.866992 831.023126 512.000512 831.023126L512.000512 831.023126zM790.551622 493.756753 477.73101 192.103482c-4.183276-4.184299-8.840342-7.42204-13.859659-9.860579-19.643386-13.967106-47.14781-12.221346-64.753793 5.387707l-134.346801 134.38057c-19.646456 19.643386-19.646456 51.477418 0 71.086012 19.643386 19.716041 51.474348 19.716041 71.117734 0l100.841709-100.806917 282.70164 272.549419c19.608593 19.681248 51.477418 19.681248 71.119781 0C810.193984 545.230078 810.193984 513.365346 790.551622 493.756753L790.551622 493.756753zM790.551622 493.756753"  horiz-adv-x="1024" />

    
    <glyph glyph-name="zhankaishouqi" unicode="&#58977;" d="M849.889567 276.289859 535.63735 599.856209l-22.23849 22.898523-22.184255-22.946618L178.391946 276.235624l-22.107507-22.86373 44.475957-45.447075 22.101367 22.857591L535.691585 554.355923l-44.422745-0.053212L805.520033 230.735337l22.154579-22.815635 44.369533 45.559639L849.889567 276.289859z"  horiz-adv-x="1024" />

    
    <glyph glyph-name="huifu" unicode="&#58904;" d="M394.356115 481.117898c0 23.008017-18.646686 41.654702-41.654702 41.654702-23.006993 0-41.654702-18.646686-41.654702-41.654702 0-23.006993 18.646686-41.653679 41.654702-41.653679C375.709429 439.464219 394.356115 458.109882 394.356115 481.117898zM560.974923 480.239901c0 23.00597-18.647709 41.653679-41.653679 41.653679-23.008017 0-41.655725-18.647709-41.655725-41.653679 0-23.008017 18.647709-41.655725 41.655725-41.655725C542.328237 438.584176 560.974923 457.231885 560.974923 480.239901zM727.593731 481.117898c0 23.008017-18.647709 41.654702-41.655725 41.654702-23.00597 0-41.653679-18.646686-41.653679-41.654702 0-23.006993 18.647709-41.653679 41.653679-41.653679C708.947046 439.464219 727.593731 458.109882 727.593731 481.117898zM872.944144 717.991794c-14.480806 23.057135-40.121789 38.395472-69.359694 38.395472l-603.750657 0c-29.236881 0-54.877865-15.338337-69.359694-38.395472-7.912204-12.598946-12.504802-27.493168-12.504802-43.469024l0-386.809743c0-45.213761 36.651758-81.864496 81.864496-81.864496l122.17048 0 0 0.023536c0.312108-0.01228 0.623193-0.023536 0.938372-0.023536 12.951987 0 23.451108 10.595312 23.451108 23.661909 0 13.068643-10.499122 23.663956-23.451108 23.663956-0.7552 0-1.50119-0.039909-2.237971-0.109494l-91.628884 0c-33.909297 0-61.398372 27.489074-61.398372 61.398372l0 331.551208c0 33.909297 27.489074 61.398372 61.398372 61.398372l542.352285 0c33.909297 0 61.398372-27.489074 61.398372-61.398372l0-331.551208c0-33.909297-27.489074-61.398372-61.398372-61.398372L529.288247 253.064902l-6.291287-6.260587c-0.002047-0.001023-0.00307-0.002047-0.004093-0.00307L368.397906 93.771943c-8.538467-8.452509-7.402597-23.443945 2.537799-33.485649 9.939373-10.041704 24.918529-11.330046 33.456996-2.87856l149.960407 148.44182 249.232364 0c45.213761 0 81.864496 36.650735 81.864496 81.864496l0 386.809743C885.448946 690.498626 880.857371 705.393871 872.944144 717.991794z"  horiz-adv-x="1024" />

    
    <glyph glyph-name="zhankaishouqi-copy" unicode="&#58978;" d="M174.11 491.71l336.491-346.465 357.114 369.383-44.476 45.447-334.931-346.431 44.423 0.053-336.406 346.383-44.37-45.56 22.155-22.811z"  horiz-adv-x="1024" />

    
    <glyph glyph-name="ppt" unicode="&#58902;" d="M16 4.96l581.52-103.376L597.52 866.416 16 763.04 16 4.96zM182.944 586.976l125.776 0c27.392 0 47.904-9.328 61.552-28.016 13.632-18.672 20.464-45.248 20.464-79.728 0-35.44-7.424-63.136-22.304-83.072-14.864-19.952-37.552-29.92-68.064-29.92l-41.424 0 0-130.24-76 0L182.944 586.976zM308.208 448.224c5.904 7.264 8.848 16.56 8.848 27.888 0 11.008-2.56 20.352-7.68 28.016-5.12 7.664-14.752 11.488-28.896 11.488l-21.552 0 0-78.288 18.544 0C292.064 437.328 302.304 440.96 308.208 448.224zM620.32 533.312l193.84 0L814.16 384 620.32 384l0-57.424 193.84 0 0-45.952L620.32 280.624l0-57.424 193.84 0 0-45.936L620.32 177.264l0-57.424 193.84 0 0-45.952L620.32 73.888l0-57.424 273.648 0L893.968 602.24 620.32 602.24 620.32 533.312zM757.152 751.552l171.04-114.864 0-402.016L1008 234.672 1008 751.552 757.152 751.552z"  horiz-adv-x="1024" />

    
    <glyph glyph-name="biaoqing" unicode="&#58898;" d="M512 697q-46 0-89.5-12t-80-34-67.5-53-53-67.5-34-80-12-89.5q0-68 26.5-130.5t71.5-107.5 107.5-71.5 130.5-26.5q91 0 168.5 45t122.5 122.5 45 168.5-45 168.5-122.5 122.5-168.5 45zM512 63q-123 0-210.5 87.5t-87.5 210.5 87.5 210.5 210.5 87.5q81 0 149.5-39.5t108.5-108.5 40-150q0-124-88-212-88-86-210-86zM699 328q-14-66-67-109.5t-121-43.5q-66 0-118 41t-68 106q-2 7 2 13t10.5 7.5 12.5-2 7-10.5q13-54 56-88t98-34q37 0 70 16.5t55.5 45.5 30.5 65q1 6 6.5 10t12.5 2.5 10.5-7 2.5-12.5zM549 473q0 10 5 19t13.5 13.5 19 4.5 19-4.5 13.5-13.5 5-19-5-18.5-13.5-13.5-19-5-19 5-13.5 13.5-5 18.5zM400 473q0 5 1.5 10t3.5 9 5.5 7.5 7.5 6 9 3.5 10 1q10 0 18.5-4.5t13.5-13.5 5-19-5-18.5-13.5-13.5-18.5-5-18.5 5-13.5 13.5-5 18.5z"  horiz-adv-x="1024" />

    
    <glyph glyph-name="zhifubao-copy" unicode="&#58989;" d="M587.84 225.611c0 0-75.841-60.692-103.438-76.593-24.241-13.967-47.008-23.265-67.289-29.712-20.283-6.442-38.062-10.496-53.332-12.167-15.271-1.67-27.918-2.745-37.938-3.223-0.955-0.476-2.15-0.717-3.58-0.717h-11.454c-26.25 0-50.945 3.104-74.091 9.308-23.146 6.203-43.308 15.39-60.491 27.562-17.18 12.167-30.779 27.438-40.801 45.812-10.021 18.371-15.034 39.728-15.034 64.065 0.479 20.999 6.205 40.087 17.18 57.268 10.976 17.184 25.173 31.738 42.595 43.668 17.419 11.933 36.747 20.999 57.985 27.205 21.233 6.203 42.591 8.826 64.065 7.871 20.999-0.954 41.28-3.457 60.847-7.514 19.568-4.058 38.299-8.947 56.195-14.673 17.897-5.73 34.837-11.933 50.826-18.613 15.988-6.684 31.14-13.125 45.458-19.33 5.725-2.384 11.692-4.772 17.897-7.157 6.203-2.384 12.645-4.772 19.325-7.157 13.842 17.659 25.533 34.958 35.075 51.899 9.546 16.943 17.422 32.451 23.626 46.529 6.203 14.080 10.975 25.89 14.318 35.436 3.342 9.542 5.488 16.226 6.442 20.042h-310.678v34.363h146.749v79.455h-204.015v34.363h204.016v64.427c0 4.297 2.384 7.753 7.157 10.378 4.772 2.626 10.258 4.415 16.464 5.369 7.157 1.434 15.273 2.15 24.337 2.15h55.122v-82.323h209.74v-34.363h-209.74v-79.455h166.67c0.037 0.237 0.083 0.477 0.119 0.713v-0.713h-0.119c-3.353-21.266-9.035-43.693-17.059-67.293-6.679-20.521-16.582-43.905-29.708-70.15-13.125-26.246-30.423-53.21-51.899-80.889 0 0 164.289-78.577 337.714-106.262 28.805 63.883 44.838 134.764 44.838 209.389 0 281.631-228.305 509.936-509.936 509.936s-509.936-228.307-509.936-509.938 228.305-509.936 509.936-509.936c174.695 0 328.865 87.853 420.763 221.779-93.403 20.324-192.592 61.52-344.922 129.191zM186.967 248.521c-1.914-87.498 97.092-93.999 112.354-94.468 50.452-1.552 91.203 17.505 122.941 36.355 31.732 18.851 83.497 67.536 85.406 69.206s3.817 3.46 5.725 5.369c-13.838 7.638-27.439 14.677-40.801 21.119-13.362 6.442-81.25 42.9-141.503 49.14-114.085 11.817-143.54-60.103-144.123-86.721z"  horiz-adv-x="1024" />

    
    <glyph glyph-name="v" unicode="&#58981;" d="M1091.754667 778.752C1094.030222 810.609778 1094.030222 846.961778 1094.030222 876.600889L918.869333 876.600889 686.819556 876.600889C684.544 847.018667 684.544 810.609778 684.544 776.476444L814.250667 771.925333C821.077333 771.925333 821.077333 769.649778 821.077333 762.823111 796.046222 680.903111 755.086222 573.952 693.646222 416.995556 634.481778 266.808889 602.624 191.715556 561.664 96.199111L548.010667 96.199111C511.601778 193.991111 484.295111 289.564444 431.957333 448.853333 381.895111 610.360889 350.037333 717.312 336.384 771.925333L488.846222 776.476444C491.121778 808.334222 491.121778 846.961778 491.121778 876.600889L234.040889 876.600889 17.92 876.600889C15.644444 847.018667 15.644444 812.885333 15.644444 776.476444L131.697778 771.925333C138.524444 771.925333 140.8 767.374222 143.075556 765.098667 172.657778 678.627556 206.791111 587.605333 270.506667 398.791111 341.048889 193.991111 379.733333 100.750222 457.102222-99.498667 504.888889-99.498667 554.951111-99.498667 586.808889-97.223111 671.004444 73.386667 723.342222 182.613333 789.276444 335.075556 880.298667 542.094222 953.059556 703.658667 984.917333 771.925333L1091.754667 778.752 1091.754667 778.752Z"  horiz-adv-x="1138" />

    
    <glyph glyph-name="logo" unicode="&#58920;" d="M495.818 882.845c11.487 0 22.975 0 34.463 0 176.739-10.747 287.693-87.269 374.965-187.483 91.388 15.27 132.74-97.149 84.091-159.911 35.621-91.716 30.464-243.924-8.271-328.096-16.403 19.954-34.96 51.485-64.793 52.388-14.803 0.444-32.218-9.024-48.25-19.3-43.069-27.618-95.324-45.489-159.91-45.489-71.315 0-119.020 18.345-161.291 45.489-14.097 9.049-29.835 21.068-45.492 23.435-42.755 6.463-70.859-19.936-110.284-22.061 0.917 138.774-1.839 281.23 1.378 417.706 11.771 0.635 26.258-1.449 35.843 1.377 15.106 9.509 15.838 41.015 1.379 49.63-12.432 7.406-47.327 2.759-70.308 2.759-75.2 0-156.34 0-220.57 0 79.633 90.387 192.242 159.742 357.047 169.559zM843.211 609.891c-0.932-60.062 63.43-113.89 121.311-81.337 73.074 41.095 31.877 167.733-53.762 158.534-40.075-4.304-66.915-36.366-67.55-77.199zM703.977 214.245c131.423 0.289 261.324 82.88 270.196 206.783 3.076 42.951-4.417 66.918-17.917 95.122-76.277-20.821-131.988 37.922-118.56 115.797-49.824 25.649-122.623 36.896-187.481 22.058-52.672-12.050-98.685-34.785-133.722-62.037-4.832-3.756-13.636-9.274-11.029-12.403 94.458 61.801 275.012 28.404 314.314-60.657 6.977-15.811 10.801-34.873 8.271-56.523-8.995-77.018-107.825-118.204-188.863-122.692-91.308-5.057-162.096 43.241-199.889 89.607 0.004 0.765-1.117 1.567-1.379 0 12.345-131.258 125.475-215.366 266.060-215.055zM491.679 547.857c-10-13.089-14.699-31.588-8.272-51.008 19.187-57.98 119.648-86.873 195.756-81.334 63.382 4.612 108.559 39.691 136.476 75.82-42.319-25.286-125.306-28.994-179.211-12.405-18.673 5.745-49.262 18.545-48.254 38.598 1.026 20.345 33.953 29.575 53.767 35.845 36.925 11.679 69.561 19.602 110.283 15.163-54.83 49.339-218.748 34.020-260.546-20.678zM268.353 659.52c0-46.887 0-92.301 0-140.612 0-15.17 3.021-32.951 0-45.495-2.771-11.499-22.337-28.654-30.33-37.22-11.158-11.965-21.916-23.332-31.709-31.71 0.918 84.553-1.838 172.78 1.38 255.034 20.22 0.002 40.436 0.002 60.657 0.002zM11.941 365.887c0 11.948 0 23.897 0 35.845 5.824 94.35 32.090 175.613 70.308 232.975 0-147.241 0-304.253 0-454.925 0-13.429 2.094-20.322-6.894-23.435-12.974-4.493-20.947 27.136-26.194 39.98-21.026 51.452-33.929 105.49-37.221 169.559zM266.973 390.701c3.219-57.44 0.46-120.852 1.38-180.589-21.227-4.965-40.391-11.998-62.036-16.542 0 22.062 0 42.915 0 63.412 0 20.761-4.372 44.626 0 63.418 2.327 9.999 18.426 24.551 27.574 34.462 13.284 14.397 24.304 23.826 33.082 35.842zM531.659-116.606c-11.948 0-23.895 0-35.841 0-171.323 9.745-285.349 84.814-368.077 181.969-5.178 6.083-14.339 11.485-13.787 20.677 52.175 13.538 100.78 30.642 154.399 42.734 6.125-38.434-8.779-79.706 1.377-113.038 13.596-44.595 103.196-44.794 118.559-1.379 7.92 22.385 2.761 49.43 2.761 71.684 0 24.318 0 48.468 0 75.822 34.686 6.839 69.086 21.635 100.63 13.786 30.859-7.679 50.268-33.31 78.58-49.627 26.474-15.263 57.060-27.394 96.497-31.711 59.178-6.475 117.95 11.004 157.155 31.711 13.483 7.116 28.896 18.896 44.114 20.675 36.394 4.255 48.708-18.974 60.658-41.356-84.991-121.34-204.644-208.002-397.026-221.947z"  horiz-adv-x="1024" />

    
    <glyph glyph-name="fandui1" unicode="&#58905;" d="M58.12224 291.9424c19.12832-25.41568 47.98464-39.97696 79.07328-39.97696l212.31616 0c-7.24992-15.91296-11.61216-31.76448-12.5952-40.73472l-3.2768-13.824c-14.848-59.2896-12.32896-121.67168 7.43424-180.87936l6.49216-18.10432c13.35296-40.01792 52.16256-68.01408 94.35136-68.01408l2.62144 0c55.05024 0 103.30112 46.75584 103.30112 100.06528l0 25.74336c0 110.77632 72.92928 197.30432 175.08352 215.2448L722.92352 831.52896 245.4528 831.52896c-45.01504 0-84.8896-30.9248-96.89088-74.91584l-107.3152-374.8864C32.44032 351.21152 38.76864 317.6448 58.12224 291.9424zM81.77664 392.3968 179.07712 723.33312c10.89536 38.83008 47.04256 67.25632 87.8592 67.25632l415.19104 0 0-495.53408c-92.59008-15.81056-176.64-116.30592-176.64-208.46592 0-58.59328 0-115.2-60.33408-115.2l-2.37568 0c-38.25664 0-53.76 27.2384-61.44 51.2-16.85504 52.59264-17.22368 89.64096-10.07616 145.67424l7.51616 33.52576c0.88064 7.94624 22.87616 71.70048 29.45024 85.77024L168.79616 287.55968c-28.20096 0-61.97248 3.15392-79.31904 25.6C71.92576 335.85152 73.80992 365.50656 81.77664 392.3968zM860.8768 274.92352c53.51424 0 100.43392 50.01216 100.43392 107.04896L961.31072 731.05408c0 55.35744-45.03552 100.41344-100.43392 100.41344l0.04096 0.04096-86.71232 0 0-556.60544L860.8768 274.90304zM810.35264 790.60992l33.03424 0 18.49344-0.04096c47.24736 0 67.13344-38.42048 67.13344-85.64736l0-297.75872c0-48.66048-15.68768-91.32032-85.68832-91.32032l-32.99328 0L810.33216 790.60992z"  horiz-adv-x="1024" />

    
    <glyph glyph-name="paixu" unicode="&#59034;" d="M178.685002 486.398995l682.671673 0-341.335837 409.601005L178.685002 486.398995 178.685002 486.398995zM178.685002 486.398995M861.356675 281.602242 178.685002 281.602242l341.335837-409.602254L861.356675 281.602242 861.356675 281.602242zM861.356675 281.602242"  horiz-adv-x="1052" />

    
    <glyph glyph-name="mima" unicode="&#58931;" d="M394.663936 473.669632 274.464768 473.669632 274.464768 613.904384c0 30.52544 6.0416 58.983424 18.126848 85.374976 12.084224 26.396672 28.776448 49.609728 50.081792 69.639168 21.306368 20.035584 46.427136 35.776512 75.363328 47.223808 28.936192 11.446272 60.573696 17.170432 94.91968 17.170432 30.52544 0 59.93984-5.723136 88.239104-17.170432 28.29824-11.447296 53.420032-27.188224 75.362304-47.223808 21.938176-20.02944 39.427072-43.242496 52.468736-69.639168 13.03552-26.391552 19.556352-54.85056 19.556352-85.374976l0-140.234752L633.151488 473.669632 633.151488 587.194368c0 40.065024-11.128832 71.069696-33.385472 93.006848-22.260736 21.942272-52.468736 32.91136-90.626048 32.91136-34.345984 0-62.007296-10.969088-82.994176-32.91136-20.990976-21.938176-31.481856-52.941824-31.481856-93.006848L394.663936 473.669632 394.663936 473.669632zM805.820416 416.4352c17.170432 0 31.954944-6.202368 44.357632-18.60096 12.399616-12.403712 18.60096-27.189248 18.60096-44.35968l0-295.727104c0-17.171456-3.017728-33.230848-9.060352-48.17408-6.042624-14.94528-14.3104-27.984896-24.80128-39.113728-10.496-11.128832-22.894592-19.87584-37.206016-26.231808-14.312448-6.361088-30.048256-9.539584-47.218688-9.539584L268.741632-65.311744c-17.171456 0-32.75264 3.178496-46.7456 9.539584-13.98784 6.355968-25.91232 14.785536-35.770368 25.279488-9.858048 10.49088-17.48992 22.734848-22.894592 36.727808-5.405696 13.98784-8.109056 28.937216-8.109056 44.832768l0 302.40768c0 17.170432 6.042624 31.954944 18.126848 44.35968 12.080128 12.397568 26.710016 18.60096 43.880448 18.60096l57.23648 0 120.199168 0 238.487552 0 115.432448 0L805.820416 416.436224 805.820416 416.4352zM805.820416 416.4352"  horiz-adv-x="1024" />

    
    <glyph glyph-name="huizhang" unicode="&#58909;" d="M757.504 289.472c-1.408-4.224-2.464-8.352-2.688-12.064-2.208-37.312-34.336-68.896-71.68-70.4-15.584-0.608-40.192-14.56-48.8-27.616-4.672-7.072-10.624-13.152-17.44-18.176l144.544-144.544 0 134.432 134.432 0L757.504 289.472zM403.552 162.08c-7.52 5.376-14.368 11.648-19.328 19.488-8.672 13.696-32.128 27.52-48.288 28.448-37.312 2.208-68.896 34.368-70.432 71.68-0.128 2.848-1.056 6.112-1.92 9.312l-131.904-131.904 134.432 0 0-134.432L403.552 162.08zM787.968 490.464c11.424 21.792 3.968 50.528-16.544 64.032-20.544 13.536-38.08 44.544-39.104 69.12-1.024 24.576-21.824 45.728-46.4 47.2-24.128 1.408-55.424 19.872-68.384 40.288-12.448 19.584-42.784 28.192-63.776 17.696-20.64-10.368-58.944-10.016-79.392 0.672-20.16 10.56-51.648 2.272-64.032-16.576-13.12-19.872-45.408-38.144-69.12-39.104-24.128-0.992-45.76-22.24-47.168-46.368C292.608 603.328 274.176 572 253.76 559.04c-20.768-13.184-28.736-41.792-17.696-63.776 11.008-21.984 10.72-57.6-0.672-79.392-11.424-21.792-3.968-50.528 16.544-64.032 20.544-13.536 38.08-44.512 39.104-69.088 1.024-24.576 21.824-45.76 46.4-47.232 24.128-1.408 55.424-19.872 68.384-40.288 12.448-19.584 42.848-28.192 63.744-17.696 10.048 5.056 23.776 7.84 38.688 7.84 15.744 0 30.176-3.008 40.704-8.512 10.432-5.44 23.136-6.72 35.136-3.648 12.16 3.136 22.432 10.336 28.96 20.224 13.088 19.904 45.408 38.176 69.12 39.104 24.128 0.96 45.728 22.208 47.168 46.368 1.408 24.128 19.872 55.456 40.288 68.384 20.768 13.184 28.704 41.792 17.696 63.776C776.256 433.056 776.576 468.672 787.968 490.464zM511.68 236.544c-119.328 0-216.416 97.088-216.416 216.416s97.088 216.416 216.416 216.416 216.416-97.088 216.416-216.416S631.008 236.544 511.68 236.544zM511.68 643.84c-105.248 0-190.848-85.632-190.848-190.848s85.632-190.848 190.848-190.848 190.848 85.632 190.848 190.848S616.896 643.84 511.68 643.84z"  horiz-adv-x="1024" />

    
    </font>
</defs>
</svg>
